{"glyphs":{"0":{"ha":625,"x_min":38,"x_max":588,"o":"m 588 267 q 508 67 588 151 q 313 -17 428 -17 q 117 67 197 -17 q 38 267 38 151 q 117 467 38 383 q 313 551 196 551 q 508 467 428 551 q 588 267 588 383 m 290 493 q 216 459 246 493 q 175 383 186 425 q 164 299 164 342 q 183 192 164 250 q 242 87 201 133 q 333 40 282 40 q 409 74 379 40 q 449 148 439 107 q 460 233 460 189 q 413 404 460 315 q 290 493 365 493 z "},"1":{"ha":625,"x_min":154,"x_max":471,"o":"m 471 0 l 154 0 l 154 29 l 175 29 q 235 56 211 29 q 258 135 258 83 l 258 435 q 244 471 258 456 q 210 486 231 486 q 163 475 203 486 l 156 503 l 367 557 l 367 135 q 390 56 367 83 q 450 29 414 29 l 471 29 l 471 0 z "},"2":{"ha":625,"x_min":93,"x_max":531,"o":"m 531 0 l 110 0 l 110 40 q 190 101 132 60 q 290 174 249 142 q 365 253 331 206 q 400 344 400 300 q 359 447 400 408 q 253 485 318 485 q 179 466 215 485 q 121 417 143 447 l 93 431 q 175 519 121 488 q 293 551 229 551 q 448 493 383 551 q 513 346 513 435 q 506 295 513 319 q 485 249 500 271 q 458 208 471 226 q 418 171 444 190 q 377 140 392 151 q 329 110 363 128 q 283 85 296 92 q 236 60 271 78 q 194 39 201 43 l 303 39 q 431 65 374 39 q 501 153 488 92 l 531 153 l 531 0 z "},"3":{"ha":625,"x_min":61,"x_max":563,"o":"m 563 -53 q 484 -227 563 -157 q 300 -297 406 -297 q 160 -258 225 -297 q 61 -153 94 -219 l 89 -139 q 257 -217 156 -217 q 387 -172 340 -217 q 433 -44 433 -126 q 380 87 433 35 q 246 139 326 139 l 246 192 l 265 192 q 352 240 317 192 q 388 340 388 288 q 349 444 388 404 q 249 485 311 485 q 108 417 163 485 l 81 431 q 163 519 108 486 q 281 551 218 551 q 435 492 369 551 q 500 346 500 433 q 473 248 500 294 q 401 175 446 201 q 517 84 472 146 q 563 -53 563 22 z "},"4":{"ha":625,"x_min":18,"x_max":607,"o":"m 607 0 l 493 0 l 493 -294 l 385 -294 l 385 0 l 18 0 l 18 79 l 428 533 l 493 533 l 493 110 l 607 110 l 607 0 m 385 110 l 385 407 l 119 110 l 385 110 z "},"5":{"ha":625,"x_min":14,"x_max":611,"o":"m 611 551 l 606 504 l 347 504 l 292 190 q 450 109 385 178 q 515 -51 515 40 q 437 -227 515 -157 q 253 -297 358 -297 q 111 -258 176 -297 q 14 -153 46 -219 l 42 -139 q 214 -217 111 -217 q 336 -174 288 -217 q 385 -58 385 -131 q 176 139 385 139 l 250 551 l 611 551 z "},"6":{"ha":625,"x_min":40,"x_max":585,"o":"m 585 838 q 322 719 435 838 q 176 447 208 601 q 306 475 233 475 q 486 401 411 475 q 561 221 561 326 q 485 52 561 118 q 297 -14 408 -14 q 107 76 174 -14 q 40 292 40 165 q 190 691 40 536 q 585 875 339 846 l 585 838 m 444 200 q 398 356 444 292 q 275 419 351 419 q 183 372 217 419 q 150 258 150 324 q 199 110 150 182 q 319 38 247 38 q 415 85 386 38 q 444 200 444 133 z "},"7":{"ha":625,"x_min":60,"x_max":565,"o":"m 564 533 q 565 517 564 528 q 565 500 565 506 q 534 235 565 367 q 443 -15 503 104 q 284 -229 383 -135 q 60 -371 185 -324 l 60 -336 q 216 -206 142 -307 q 333 -3 290 -106 q 400 197 376 100 q 436 457 429 319 l 75 457 l 92 533 l 564 533 z "},"8":{"ha":625,"x_min":39,"x_max":586,"o":"m 586 226 q 503 52 586 121 q 313 -17 421 -17 q 122 52 204 -17 q 39 226 39 121 q 90 358 39 307 q 231 454 140 408 q 119 546 163 489 q 75 674 75 603 q 145 838 75 771 q 313 904 215 904 q 481 838 411 904 q 550 674 550 772 q 394 463 550 538 q 531 364 476 424 q 586 226 586 304 m 289 424 q 194 353 231 400 q 158 247 158 307 q 209 97 158 157 q 333 36 260 36 q 424 82 389 36 q 458 186 458 128 q 417 327 458 275 q 289 424 376 379 m 294 853 q 216 804 242 853 q 190 697 190 756 q 324 499 190 571 q 413 567 382 528 q 443 667 443 606 q 399 797 443 742 q 294 853 356 853 z "},"9":{"ha":625,"x_min":40,"x_max":585,"o":"m 585 246 q 435 -154 585 1 q 40 -339 285 -310 l 40 -303 q 309 -177 201 -281 q 449 88 417 -74 q 326 60 390 60 q 144 129 224 60 q 64 301 64 199 q 141 481 64 410 q 326 553 218 553 q 516 462 447 553 q 585 246 585 371 m 474 290 q 424 429 474 361 q 304 497 374 497 q 210 449 239 497 q 181 324 181 400 q 231 183 181 251 q 350 115 281 115 q 442 165 411 115 q 474 290 474 214 z "}," ":{"ha":382,"x_min":0,"x_max":0,"o":""},"!":{"ha":213,"x_min":33,"x_max":179,"o":"m 179 54 q 158 3 179 24 q 106 -18 138 -18 q 54 3 75 -18 q 33 54 33 24 q 54 106 33 85 q 106 128 75 128 q 158 107 136 128 q 179 54 179 86 m 118 224 l 89 224 q 36 706 36 497 q 38 755 36 728 q 47 817 40 782 q 68 876 53 853 q 104 899 83 899 q 141 874 126 899 q 161 812 156 850 q 169 747 167 774 q 171 697 171 721 q 118 224 171 492 z "},"\"":{"ha":276,"x_min":33,"x_max":243,"o":"m 108 728 l 60 728 q 49 769 57 739 q 38 820 42 799 q 33 861 33 842 q 79 919 33 919 q 129 860 129 919 q 126 818 129 840 q 117 768 122 796 q 108 728 111 740 m 222 728 l 175 728 q 164 768 172 739 q 151 819 156 797 q 147 861 147 842 q 160 903 147 886 q 196 919 172 919 q 243 849 243 919 q 240 810 243 831 q 230 765 236 790 q 222 728 224 739 z "},"#":{"ha":665,"x_min":33,"x_max":632,"o":"m 632 288 l 453 288 l 396 0 l 333 0 l 392 288 l 203 288 l 144 0 l 82 0 l 140 288 l 33 288 l 33 349 l 151 349 l 194 565 l 33 565 l 33 628 l 207 628 l 257 875 l 319 875 l 271 628 l 458 628 l 508 875 l 571 875 l 522 628 l 632 628 l 632 565 l 510 565 l 465 349 l 632 349 l 632 288 m 215 349 l 403 349 l 446 565 l 258 565 l 215 349 z "},"$":{"ha":508,"x_min":33,"x_max":475,"o":"m 475 272 q 415 135 475 190 q 272 72 356 79 l 272 -15 l 219 -15 l 219 72 q 157 92 183 81 l 115 106 q 82 81 92 106 l 54 79 l 54 251 l 82 253 q 124 163 85 199 q 219 118 164 126 l 219 401 q 213 404 218 401 q 204 410 208 407 q 199 413 200 413 q 135 446 154 435 q 87 481 117 457 q 45 534 57 504 q 33 604 33 564 q 88 739 33 682 q 219 804 143 796 l 219 872 l 272 872 l 272 800 l 293 797 q 353 790 325 790 q 394 803 383 790 l 394 817 l 424 817 l 424 642 l 396 642 q 353 722 388 690 q 272 761 319 754 l 272 493 q 333 465 313 475 q 385 434 353 456 q 433 393 418 413 q 462 342 449 374 q 475 272 475 310 m 400 233 q 390 283 400 261 q 358 324 379 306 q 319 353 338 342 q 272 378 300 364 l 272 118 q 361 155 322 124 q 400 233 400 186 m 219 515 l 219 761 q 147 718 175 753 q 118 636 118 683 q 219 515 118 567 z "},"%":{"ha":738,"x_min":33,"x_max":704,"o":"m 551 861 l 593 861 l 139 0 l 33 0 l 469 718 q 415 706 444 706 q 371 715 392 706 l 371 704 q 313 533 371 614 q 172 453 256 453 q 75 499 115 453 q 35 622 35 546 q 94 795 35 714 q 233 876 153 876 q 311 849 276 876 q 363 771 346 821 q 414 744 371 744 q 475 764 447 744 q 515 801 503 783 q 546 851 528 818 q 551 861 550 858 m 285 774 q 254 828 285 828 q 193 775 225 828 q 149 685 161 722 q 122 551 122 611 q 153 499 122 499 q 198 531 174 499 q 235 593 222 564 q 257 644 249 622 q 285 774 285 722 m 611 546 q 704 383 704 511 q 649 216 704 301 q 507 131 594 131 q 403 182 438 131 q 368 301 368 233 q 423 469 368 383 q 567 554 478 554 q 611 546 589 554 m 486 176 q 531 210 506 176 q 569 272 556 243 q 590 322 582 300 q 618 453 618 389 q 586 506 618 506 q 526 453 557 506 q 481 361 494 401 q 454 231 454 282 q 486 176 454 176 z "},"&":{"ha":854,"x_min":33,"x_max":821,"o":"m 821 503 l 739 503 q 608 144 736 299 l 693 49 l 807 49 l 807 -1 l 592 -1 l 529 71 q 325 0 436 0 q 118 58 203 0 q 33 233 33 115 q 78 355 33 307 q 201 444 122 403 q 173 477 196 451 q 142 514 150 503 q 121 547 135 525 q 102 590 107 569 q 97 635 97 610 q 162 782 97 721 q 313 843 226 843 q 460 790 401 843 q 519 650 519 736 q 479 537 519 581 q 349 442 439 493 l 568 190 q 633 331 615 268 q 651 503 651 394 l 568 503 l 568 551 l 821 551 l 821 503 m 499 107 l 250 389 q 153 228 153 325 q 209 99 153 149 q 346 49 265 49 q 499 107 426 49 m 426 668 q 396 758 426 722 q 313 794 365 794 q 229 751 264 794 q 194 660 194 708 q 207 613 194 638 q 233 572 219 588 q 271 531 246 557 q 303 496 296 504 q 426 668 426 558 z "},"'":{"ha":163,"x_min":33,"x_max":129,"o":"m 108 728 l 60 728 q 49 769 57 739 q 38 820 42 799 q 33 861 33 842 q 79 919 33 919 q 129 860 129 919 q 126 818 129 840 q 117 768 122 796 q 108 728 111 740 z "},"(":{"ha":424,"x_min":33,"x_max":390,"o":"m 390 -396 l 368 -417 q 122 -106 210 -289 q 33 278 33 76 q 122 663 33 481 q 368 972 210 846 l 390 951 q 196 278 196 665 q 390 -396 196 -108 z "},")":{"ha":424,"x_min":33,"x_max":390,"o":"m 33 -396 q 228 278 228 -106 q 33 951 228 665 l 56 972 q 302 663 214 846 q 390 278 390 481 q 302 -106 390 76 q 56 -415 214 -289 l 33 -396 z "},"*":{"ha":404,"x_min":33,"x_max":371,"o":"m 371 682 q 360 653 371 665 q 333 642 350 642 q 305 649 321 642 q 281 663 289 657 q 253 684 272 668 q 232 701 233 700 q 243 622 243 631 q 201 565 243 565 q 161 626 161 565 q 171 700 161 667 q 71 642 113 642 q 44 653 54 642 q 33 683 33 665 q 46 706 38 696 q 67 724 54 717 q 89 735 81 732 q 116 746 97 739 q 140 754 135 753 q 128 758 139 754 q 114 763 118 761 q 99 769 110 765 q 83 776 89 772 q 68 784 76 779 q 55 793 60 789 q 44 803 50 797 q 37 816 39 810 q 35 829 35 822 q 45 856 35 846 q 72 867 56 867 q 171 808 113 867 q 161 881 161 842 q 201 943 161 943 q 233 925 222 943 q 243 885 243 907 q 232 807 243 878 q 333 867 299 867 q 369 828 369 867 q 367 815 369 821 q 360 804 365 810 q 349 794 354 799 q 335 785 343 789 q 320 777 326 781 q 303 769 314 774 q 288 763 293 765 q 274 758 283 761 q 263 754 264 754 q 277 749 265 753 q 297 742 289 744 q 317 733 304 739 q 338 722 329 728 q 354 710 346 717 q 367 697 363 704 q 371 682 371 690 z "},"+":{"ha":693,"x_min":33,"x_max":660,"o":"m 660 425 l 385 425 l 385 150 l 308 150 l 308 425 l 33 425 l 33 501 l 308 501 l 308 776 l 385 776 l 385 501 l 660 501 l 660 425 z "},",":{"ha":317,"x_min":33,"x_max":283,"o":"m 283 33 q 233 -86 283 -37 q 110 -135 182 -135 q 33 -121 75 -135 l 46 -89 q 71 -90 54 -90 q 133 -66 107 -90 q 169 -4 158 -42 q 139 53 139 17 q 160 104 139 83 q 211 125 181 125 q 265 99 247 125 q 283 33 283 72 z "},"-":{"ha":235,"x_min":33,"x_max":201,"o":"m 201 425 l 33 425 l 33 501 l 201 501 l 201 425 z "},".":{"ha":213,"x_min":33,"x_max":179,"o":"m 179 54 q 158 3 179 24 q 106 -18 138 -18 q 54 3 75 -18 q 33 54 33 24 q 54 106 33 85 q 106 128 75 128 q 158 107 136 128 q 179 54 179 86 z "},"/":{"ha":586,"x_min":33,"x_max":553,"o":"m 553 972 l 144 -333 l 33 -333 l 443 972 l 553 972 z "},":":{"ha":213,"x_min":33,"x_max":179,"o":"m 179 54 q 158 3 179 24 q 106 -18 138 -18 q 54 3 75 -18 q 33 54 33 24 q 54 106 33 85 q 106 128 75 128 q 158 107 136 128 q 179 54 179 86 m 158 315 q 168 305 158 315 q 179 263 179 294 q 158 210 179 231 q 106 189 136 189 q 54 210 75 189 q 33 263 33 232 q 54 315 33 293 q 106 336 75 336 q 158 315 136 336 z "},";":{"ha":321,"x_min":33,"x_max":288,"o":"m 283 33 q 233 -86 283 -37 q 110 -135 182 -135 q 33 -121 75 -135 l 46 -89 q 71 -90 54 -90 q 133 -66 107 -90 q 169 -4 158 -42 q 139 53 139 17 q 160 104 139 83 q 211 125 181 125 q 265 99 247 125 q 283 33 283 72 m 266 315 q 277 305 266 315 q 288 263 288 294 q 266 210 288 231 q 214 189 244 189 q 163 210 183 189 q 142 263 142 232 q 163 315 142 293 q 214 336 183 336 q 266 315 244 336 z "},"<":{"ha":656,"x_min":33,"x_max":622,"o":"m 622 99 l 33 406 l 622 713 l 622 619 l 214 406 l 622 193 l 622 99 z "},"=":{"ha":693,"x_min":33,"x_max":660,"o":"m 660 508 l 33 508 l 33 585 l 660 585 l 660 508 m 660 342 l 33 342 l 33 418 l 660 418 l 660 342 z "},">":{"ha":656,"x_min":33,"x_max":622,"o":"m 33 99 l 33 193 l 442 406 l 33 619 l 33 713 l 622 406 l 33 99 z "},"?":{"ha":460,"x_min":33,"x_max":426,"o":"m 228 54 q 207 3 228 24 q 154 -18 186 -18 q 103 3 124 -18 q 82 54 82 24 q 103 106 82 85 q 154 128 124 128 q 207 107 186 128 q 228 54 228 86 m 426 669 q 399 572 426 617 q 333 496 372 528 q 256 432 294 464 q 191 355 218 400 q 164 254 164 310 q 165 225 164 235 l 119 215 q 112 251 118 224 q 106 299 106 278 q 126 388 106 346 q 178 460 147 429 q 238 520 208 490 q 289 587 268 550 q 310 664 310 624 q 278 767 310 726 q 185 807 246 807 q 61 740 111 807 l 33 754 q 109 842 58 810 q 221 875 160 875 q 366 815 306 875 q 426 669 426 756 z "},"@":{"ha":1029,"x_min":33,"x_max":996,"o":"m 913 74 q 514 -46 750 -46 q 176 78 319 -46 q 33 393 33 203 q 194 764 33 617 q 578 911 354 911 q 879 804 763 911 q 996 514 996 697 q 963 362 996 439 q 865 230 929 285 q 724 175 800 175 q 643 208 674 175 q 610 292 613 242 q 422 182 522 182 q 319 231 357 182 q 282 347 282 281 q 364 559 282 454 q 549 664 446 664 q 675 571 646 664 l 697 646 l 799 646 q 694 278 694 311 q 713 232 694 253 q 756 211 731 211 q 863 268 806 211 q 967 531 967 375 q 853 787 967 693 q 575 881 740 881 q 242 739 374 881 q 110 394 110 597 q 227 101 110 218 q 521 -17 344 -17 q 894 97 740 -17 l 913 74 m 651 522 q 633 590 651 553 q 588 626 615 626 q 488 573 533 626 q 419 453 442 519 q 396 336 396 388 q 411 260 396 294 q 464 226 426 226 q 562 282 517 226 q 629 405 607 338 q 651 522 651 472 z "},"A":{"ha":996,"x_min":33,"x_max":963,"o":"m 963 0 l 633 0 l 633 29 q 710 81 710 29 q 615 333 710 97 l 301 333 q 278 269 299 325 q 244 172 257 213 q 232 110 232 131 q 258 50 232 71 q 325 29 285 29 l 325 0 l 33 0 l 33 29 l 47 29 q 126 64 88 29 q 178 139 164 99 l 431 893 l 519 893 l 811 139 q 872 61 829 93 q 963 29 915 29 l 963 0 m 590 397 l 447 764 l 324 397 l 590 397 z "},"B":{"ha":788,"x_min":33,"x_max":754,"o":"m 754 240 q 671 70 754 140 q 485 0 588 0 l 33 0 l 33 29 l 74 29 q 131 58 108 29 q 154 135 154 88 l 154 783 q 137 835 154 817 q 98 858 119 854 q 43 863 76 863 l 43 892 q 223 892 103 892 q 403 893 343 893 q 591 828 507 893 q 675 661 675 763 q 637 549 675 599 q 539 474 599 500 q 692 392 629 454 q 754 240 754 329 m 628 242 q 555 378 628 329 q 390 426 482 426 l 268 426 l 268 163 q 302 90 268 119 q 381 60 336 60 q 552 106 476 60 q 628 242 628 151 m 363 835 l 268 835 l 268 488 l 349 488 q 483 536 421 488 q 546 656 546 585 q 490 781 546 726 q 363 835 435 835 z "},"C":{"ha":863,"x_min":33,"x_max":829,"o":"m 829 92 q 518 -19 692 -19 q 178 116 322 -19 q 33 446 33 251 q 181 779 33 644 q 529 914 328 914 q 626 906 578 914 q 681 888 638 903 q 739 874 724 874 q 785 904 776 874 l 814 900 l 814 675 l 782 675 q 681 797 756 753 q 521 840 607 840 q 269 721 368 840 q 171 444 171 601 q 270 172 171 290 q 521 53 369 53 q 797 211 708 53 l 829 211 l 829 92 z "},"D":{"ha":1039,"x_min":33,"x_max":1006,"o":"m 880 760 q 943 694 880 760 q 1006 446 1006 628 q 881 132 1006 264 q 574 0 756 0 l 39 0 l 39 29 q 94 33 72 29 q 134 56 115 38 q 153 108 153 75 l 153 758 q 130 837 153 811 q 69 863 107 863 l 33 863 l 33 893 l 574 893 q 880 760 754 893 m 872 446 q 754 726 872 611 q 471 842 636 842 l 265 842 l 265 164 q 297 90 265 121 q 371 60 328 60 l 471 60 q 754 171 636 60 q 872 446 872 282 z "},"E":{"ha":740,"x_min":33,"x_max":707,"o":"m 707 186 l 660 0 l 33 0 l 33 29 l 54 29 q 113 58 89 29 q 138 135 138 88 l 138 783 q 38 863 138 863 l 38 893 l 649 893 l 649 736 l 618 736 q 590 804 618 776 q 522 832 563 832 l 251 832 l 251 486 l 490 486 q 558 514 531 486 q 586 582 586 542 l 615 582 l 615 329 l 586 329 q 558 398 586 369 q 490 426 531 426 l 251 426 l 251 164 q 282 90 251 121 q 356 60 313 60 l 521 60 q 620 100 574 60 q 679 193 667 140 l 707 186 z "},"F":{"ha":681,"x_min":33,"x_max":647,"o":"m 647 736 l 618 736 q 591 803 618 775 q 525 832 564 832 l 251 832 l 251 486 l 493 486 q 559 515 532 486 q 586 582 586 543 l 615 582 l 615 329 l 586 329 q 558 398 583 369 q 493 426 532 426 l 251 426 l 251 135 q 275 58 251 86 q 335 29 299 29 l 390 29 l 390 0 l 33 0 l 33 29 l 54 29 q 114 59 90 29 q 138 135 138 89 l 138 783 q 38 863 138 863 l 38 893 l 647 893 l 647 736 z "},"G":{"ha":969,"x_min":33,"x_max":936,"o":"m 936 411 q 832 335 832 411 l 832 -17 l 807 -17 q 736 6 776 6 q 693 -1 721 6 q 661 -8 665 -7 q 528 -19 601 -19 q 181 114 328 -19 q 33 446 33 247 q 180 779 33 644 q 528 914 326 914 q 646 901 588 914 q 676 891 656 899 q 715 878 697 883 q 743 874 732 874 q 769 883 757 874 q 785 904 781 892 l 814 900 l 814 675 l 782 675 q 685 794 754 751 q 532 836 617 836 q 266 723 371 836 q 161 446 161 610 q 266 165 161 283 q 532 46 371 46 q 719 86 643 46 l 719 335 q 615 411 719 411 l 615 442 l 936 442 l 936 411 z "},"H":{"ha":1050,"x_min":33,"x_max":1017,"o":"m 1017 0 l 694 0 l 694 29 l 715 29 q 774 58 750 29 q 799 135 799 88 l 799 411 l 251 411 l 251 135 q 276 59 251 89 q 335 29 300 29 l 356 29 l 356 0 l 33 0 l 33 29 l 54 29 q 113 58 89 29 q 138 135 138 88 l 138 783 q 38 863 138 863 l 38 893 l 351 893 l 351 863 q 251 783 251 863 l 251 476 l 799 476 l 799 783 q 699 863 799 863 l 699 893 l 1013 893 l 1013 863 q 913 783 913 863 l 913 135 q 937 58 913 88 q 996 29 961 29 l 1017 29 l 1017 0 z "},"I":{"ha":388,"x_min":33,"x_max":354,"o":"m 354 0 l 35 0 l 33 29 l 53 29 q 113 58 88 29 q 138 135 138 88 l 138 783 q 38 863 138 863 l 38 893 l 350 893 l 350 863 q 250 783 250 863 l 250 135 q 274 58 250 88 q 335 29 299 29 l 354 29 l 354 0 z "},"J":{"ha":376,"x_min":-190,"x_max":351,"o":"m 351 863 q 251 783 251 863 l 251 67 q 170 -157 251 -60 q -35 -254 89 -254 q -190 -201 -114 -254 l -190 -131 q -176 -140 -189 -132 q -160 -150 -162 -149 q -146 -158 -157 -151 q -131 -165 -135 -164 q -116 -171 -126 -167 q -99 -176 -106 -175 q -83 -178 -93 -176 q -64 -179 -74 -179 q 78 -111 19 -179 q 138 42 138 -43 l 138 783 q 38 863 138 863 l 38 893 l 351 893 l 351 863 z "},"K":{"ha":932,"x_min":33,"x_max":899,"o":"m 899 0 l 469 0 l 469 29 l 490 29 q 558 71 558 29 q 538 118 558 93 l 251 443 l 251 135 q 275 58 251 88 q 335 29 299 29 l 356 29 l 356 0 l 33 0 l 33 29 l 54 29 q 114 58 90 29 q 138 135 138 88 l 138 783 q 38 863 138 863 l 38 893 l 351 893 l 351 863 q 251 783 251 863 l 251 483 l 558 781 q 578 824 578 800 q 518 863 578 863 l 490 863 l 490 893 l 860 893 l 860 863 q 728 839 781 863 q 617 758 675 815 l 357 504 l 682 144 q 899 29 788 29 l 899 0 z "},"L":{"ha":740,"x_min":33,"x_max":707,"o":"m 707 186 l 660 0 l 33 0 l 33 29 l 54 29 q 114 58 90 29 q 138 139 138 88 l 138 783 q 38 863 138 863 l 38 893 l 351 893 l 351 863 q 251 783 251 863 l 251 132 q 278 76 251 101 q 335 50 304 50 q 428 49 367 50 q 521 49 489 49 q 619 95 571 49 q 679 193 668 142 l 707 186 z "},"M":{"ha":1231,"x_min":33,"x_max":1197,"o":"m 1197 0 l 869 0 l 869 29 q 937 53 913 29 q 961 122 961 78 q 951 181 956 149 q 943 253 947 213 q 938 313 939 294 l 890 722 l 622 0 l 583 0 l 260 678 l 210 124 q 231 60 210 92 q 283 29 253 29 l 304 29 l 304 0 l 38 0 l 38 29 l 57 29 q 119 65 90 29 q 151 136 149 101 l 210 774 q 133 839 179 815 q 35 863 86 863 l 33 893 l 290 893 l 629 183 l 892 893 l 1146 893 l 1146 863 q 1122 863 1139 863 q 1097 864 1106 864 q 1028 850 1053 864 q 1003 793 1003 836 l 1003 785 l 1079 138 q 1117 58 1086 88 q 1197 29 1147 29 l 1197 0 z "},"N":{"ha":1139,"x_min":33,"x_max":1106,"o":"m 1106 863 l 1063 863 q 1002 832 1028 863 q 976 758 976 801 l 976 0 l 932 0 l 272 724 l 272 135 q 297 59 272 89 q 356 29 321 29 l 407 29 l 407 0 l 97 0 l 97 29 l 131 29 q 190 59 165 29 q 214 135 214 89 l 214 785 q 33 863 132 863 l 33 893 l 290 893 l 921 207 l 921 758 q 896 832 921 801 q 836 863 871 863 l 786 863 l 786 893 l 1106 893 l 1106 863 z "},"O":{"ha":997,"x_min":33,"x_max":964,"o":"m 964 446 q 827 117 964 254 q 499 -19 690 -19 q 170 117 307 -19 q 33 446 33 254 q 170 776 33 638 q 499 914 307 914 q 828 776 692 914 q 964 446 964 639 m 464 856 q 240 747 322 856 q 158 493 158 638 q 185 325 158 404 q 322 123 225 210 q 533 36 419 36 q 757 145 675 36 q 839 399 839 254 q 813 567 839 488 q 676 770 772 685 q 464 856 581 856 z "},"P":{"ha":756,"x_min":33,"x_max":722,"o":"m 722 632 q 628 444 722 518 q 417 371 535 371 q 275 401 340 371 l 275 135 q 299 59 275 89 q 358 29 322 29 l 426 29 l 426 0 l 39 0 l 39 29 l 78 29 q 137 59 113 29 q 161 135 161 89 l 161 783 q 150 828 161 811 q 117 853 139 846 q 78 861 96 860 q 33 863 61 863 l 33 893 l 417 893 q 632 823 542 893 q 722 632 722 753 m 593 638 q 544 776 593 714 q 419 838 494 838 l 275 838 l 275 456 q 417 413 318 413 q 547 481 500 413 q 593 638 593 550 z "},"Q":{"ha":1013,"x_min":43,"x_max":1372,"o":"m 1372 -115 q 1065 -251 1226 -251 q 902 -215 990 -251 q 749 -135 814 -179 q 616 -56 683 -92 q 508 -19 549 -19 q 180 117 317 -19 q 43 446 43 254 q 179 776 43 639 q 508 914 315 914 q 838 776 701 914 q 974 446 974 639 q 901 197 974 311 q 706 24 828 82 q 835 -47 746 6 q 1000 -132 925 -100 q 1139 -164 1075 -164 q 1339 -72 1247 -164 l 1372 -115 m 474 856 q 250 747 332 856 q 168 493 168 638 q 213 273 168 376 q 344 103 257 169 q 543 36 432 36 q 767 145 685 36 q 849 399 849 254 q 822 567 849 488 q 686 770 782 685 q 474 856 590 856 z "},"R":{"ha":922,"x_min":33,"x_max":889,"o":"m 889 0 l 669 0 q 557 166 624 46 q 460 325 490 286 q 342 393 410 388 q 300 394 328 394 q 278 394 293 394 q 257 393 264 393 l 257 135 q 281 58 257 88 q 340 29 306 29 l 361 29 l 361 0 l 40 0 l 40 29 l 60 29 q 120 58 96 29 q 144 135 144 88 l 144 783 q 33 863 144 863 l 33 893 l 408 893 q 601 822 518 893 q 683 643 683 751 q 636 505 683 567 q 515 414 589 443 q 597 321 550 389 q 681 191 643 253 q 774 79 718 129 q 889 29 831 29 l 889 0 m 557 636 q 501 770 557 715 q 365 825 444 825 l 257 825 l 257 453 l 313 453 q 486 495 415 453 q 557 636 557 538 z "},"S":{"ha":619,"x_min":33,"x_max":586,"o":"m 586 232 q 501 50 586 121 q 303 -21 415 -21 q 198 1 257 -21 q 131 24 139 24 q 88 -10 100 24 l 58 -11 l 58 201 l 88 201 q 156 77 93 124 q 301 31 219 31 q 436 72 375 31 q 497 183 497 114 q 449 292 497 246 q 333 369 401 339 q 197 432 265 399 q 81 522 129 465 q 33 656 33 578 q 112 832 33 760 q 294 904 190 904 q 376 895 332 904 q 442 886 421 886 q 490 910 490 886 l 490 918 l 519 918 l 519 704 l 492 704 q 428 813 481 768 q 313 858 376 858 q 186 815 240 858 q 132 700 132 771 q 165 608 132 647 q 249 545 199 568 q 359 494 300 522 q 469 436 418 465 q 553 354 519 407 q 586 232 586 301 z "},"T":{"ha":914,"x_min":33,"x_max":881,"o":"m 881 935 l 847 708 l 818 713 l 818 722 q 792 788 818 757 q 732 819 765 819 l 497 819 l 497 135 q 521 59 497 89 q 581 29 544 29 l 601 29 l 601 0 l 279 0 l 279 29 l 300 29 q 359 59 335 29 q 383 135 383 89 l 383 819 l 160 819 q 96 782 128 819 q 64 711 64 744 l 33 711 l 33 938 l 61 944 q 165 893 92 893 l 740 893 q 854 946 817 893 l 881 935 z "},"U":{"ha":1082,"x_min":33,"x_max":1049,"o":"m 1049 863 l 1028 863 q 969 836 994 863 q 943 778 943 810 l 943 346 q 826 85 943 190 q 540 -19 708 -19 q 253 79 369 -19 q 138 332 138 178 l 138 778 q 112 836 138 810 q 53 863 86 863 l 33 863 l 33 893 l 360 893 l 360 863 l 333 863 q 275 836 300 863 q 250 778 250 810 l 250 378 q 318 132 250 225 q 540 39 386 39 q 831 378 831 39 l 831 778 q 806 836 831 810 q 747 863 781 863 l 719 863 l 719 893 l 1049 893 l 1049 863 z "},"V":{"ha":1192,"x_min":33,"x_max":1158,"o":"m 1158 863 q 971 744 1021 863 l 644 -21 l 599 -21 l 218 751 q 72 863 165 863 l 33 863 l 33 893 l 432 893 l 432 863 q 391 860 406 863 q 363 848 376 858 q 349 817 349 838 q 360 779 349 801 l 658 171 l 890 711 q 904 772 904 744 q 868 840 904 817 q 779 863 832 863 l 779 893 l 1158 893 l 1158 863 z "},"W":{"ha":1518,"x_min":33,"x_max":1485,"o":"m 1485 863 q 1380 837 1417 863 q 1321 746 1343 811 l 1076 0 l 1044 0 l 757 679 l 535 0 l 504 0 l 185 753 q 68 860 140 860 l 33 863 l 33 893 l 374 893 l 374 863 q 307 817 307 863 q 317 778 307 800 l 549 236 l 713 738 q 721 783 721 763 q 614 863 721 863 l 614 893 l 944 893 l 944 863 q 865 801 865 863 q 876 746 865 775 l 1090 236 l 1254 738 q 1263 781 1263 765 q 1235 846 1263 829 q 1151 863 1207 863 l 1151 893 l 1485 893 l 1485 863 z "},"X":{"ha":1058,"x_min":33,"x_max":1025,"o":"m 1025 0 l 625 0 l 625 29 l 653 29 q 707 64 707 29 q 690 108 707 88 l 485 390 l 294 129 q 279 83 279 106 q 361 29 279 29 l 390 29 l 390 0 l 47 0 l 47 29 q 228 143 146 29 l 446 443 l 204 775 q 131 843 169 824 q 33 863 93 863 l 33 893 l 421 893 l 421 863 l 389 863 q 346 824 346 863 q 361 785 346 806 l 529 556 l 696 785 q 711 826 711 806 q 697 851 711 840 q 663 863 683 863 l 633 863 l 633 893 l 975 893 l 975 863 q 847 841 897 863 q 753 761 796 819 l 567 504 l 829 143 q 1025 29 911 29 l 1025 0 z "},"Y":{"ha":1019,"x_min":33,"x_max":986,"o":"m 986 863 q 815 783 881 863 l 569 488 l 569 135 q 593 59 569 89 q 653 29 617 29 l 674 29 l 674 0 l 351 0 l 351 29 l 372 29 q 431 59 407 29 q 456 135 456 89 l 456 467 l 193 783 q 123 845 156 828 q 33 863 90 863 l 33 893 l 428 893 l 428 863 l 392 863 q 343 836 343 863 q 363 794 343 819 l 558 558 l 736 771 q 756 815 756 793 q 685 863 756 863 l 685 893 l 986 893 l 986 863 z "},"Z":{"ha":836,"x_min":33,"x_max":803,"o":"m 803 893 l 222 46 l 524 46 q 660 89 596 46 q 724 201 724 132 l 724 249 l 772 249 l 772 0 l 33 0 l 614 847 l 272 847 q 162 799 213 847 q 111 692 111 751 l 111 660 l 64 660 l 64 893 l 803 893 z "},"[":{"ha":304,"x_min":33,"x_max":271,"o":"m 33 -333 l 33 875 l 271 875 l 271 843 l 172 843 l 172 -301 l 271 -301 l 271 -333 l 33 -333 z "},"\\":{"ha":586,"x_min":33,"x_max":553,"o":"m 33 972 l 143 972 l 553 -333 l 442 -333 l 33 972 z "},"]":{"ha":304,"x_min":33,"x_max":271,"o":"m 271 875 l 271 -333 l 33 -333 l 33 -301 l 132 -301 l 132 843 l 33 843 l 33 875 l 271 875 z "},"^":{"ha":694,"x_min":0,"x_max":0,"o":""},"_":{"ha":694,"x_min":0,"x_max":694,"o":"m 0 0 l 694 0 l 694 -69 l 0 -69 l 0 0 z "},"`":{"ha":299,"x_min":14,"x_max":272,"o":"m 14 710 q 33 748 14 732 q 72 764 51 764 q 143 722 110 764 l 272 558 l 214 558 l 61 639 q 23 669 32 654 q 14 710 14 685 z "},"a":{"ha":571,"x_min":33,"x_max":538,"o":"m 538 39 q 436 -17 506 -17 q 336 39 369 -17 q 206 -17 289 -17 q 93 13 140 -17 q 46 104 46 42 q 97 203 46 163 q 205 258 147 243 q 321 276 263 274 l 321 332 q 290 433 321 397 q 201 469 260 469 q 113 439 153 469 q 63 361 74 408 l 33 364 q 97 499 33 446 q 243 551 160 551 q 376 500 324 551 q 429 310 429 449 l 429 165 q 442 83 429 111 q 492 56 456 56 q 521 60 504 56 l 538 39 m 321 110 l 321 231 q 213 194 260 222 q 165 113 165 165 q 187 57 165 76 q 244 38 208 38 q 297 60 272 38 q 321 110 321 82 z "},"b":{"ha":701,"x_min":33,"x_max":668,"o":"m 591 467 q 630 424 591 467 q 668 267 668 382 q 591 67 668 151 q 400 -17 514 -17 q 210 51 288 -17 q 132 229 132 118 l 132 763 q 33 842 132 842 l 33 871 l 240 871 l 240 496 q 400 551 314 551 q 591 467 514 551 m 554 275 q 512 439 554 376 q 389 501 469 501 q 240 447 299 501 l 240 118 q 385 43 301 43 q 481 83 440 43 q 538 174 521 124 q 554 275 554 225 z "},"c":{"ha":617,"x_min":33,"x_max":583,"o":"m 583 125 q 472 21 543 58 q 321 -17 401 -17 q 117 65 200 -17 q 33 267 33 146 q 117 469 33 388 q 321 551 200 551 q 531 471 439 551 l 531 376 l 476 376 l 469 424 q 322 507 410 507 q 202 438 246 507 q 158 286 158 368 q 222 123 158 192 q 379 54 285 54 q 557 144 485 54 l 583 125 z "},"d":{"ha":726,"x_min":33,"x_max":693,"o":"m 693 0 l 479 -11 l 479 54 q 301 -17 408 -17 q 110 67 188 -17 q 33 267 33 151 q 110 467 33 382 q 301 551 188 551 q 479 479 404 551 l 479 767 q 379 847 479 847 l 379 876 l 588 876 l 588 106 q 617 48 588 67 q 689 29 647 29 l 693 0 m 479 129 l 479 424 q 336 499 422 499 q 198 431 251 499 q 144 276 144 363 q 198 122 144 190 q 336 54 251 54 q 479 129 422 54 z "},"e":{"ha":607,"x_min":33,"x_max":574,"o":"m 574 110 q 465 17 532 50 q 322 -17 397 -17 q 117 65 201 -17 q 33 267 33 147 q 110 469 33 388 q 307 551 188 551 q 469 494 406 551 q 547 333 533 436 l 160 333 q 157 292 157 306 q 207 126 157 199 q 346 54 257 54 q 547 128 456 54 l 574 110 m 422 363 q 388 472 422 428 q 300 515 354 515 q 212 471 247 515 q 165 363 176 426 l 422 363 z "},"f":{"ha":597,"x_min":33,"x_max":564,"o":"m 564 804 q 522 747 564 747 q 483 801 483 747 l 483 824 q 453 899 483 867 q 382 931 424 931 q 305 890 332 931 q 278 796 278 849 l 278 533 l 413 533 l 413 504 l 278 504 l 278 135 q 301 58 278 86 q 361 29 325 29 l 382 29 l 382 0 l 65 0 l 65 29 l 86 29 q 146 58 122 29 q 169 135 169 86 l 169 504 l 33 504 l 33 533 l 169 533 l 169 738 q 229 893 169 826 q 382 960 292 960 q 507 915 450 960 q 564 804 564 871 z "},"g":{"ha":663,"x_min":33,"x_max":629,"o":"m 629 471 l 461 490 q 539 329 539 424 q 463 170 539 233 q 289 107 388 107 q 197 122 243 107 q 167 108 178 114 q 146 88 157 101 q 135 58 135 75 q 253 -6 135 -6 l 293 -6 q 382 -9 344 -6 q 462 -24 419 -12 q 531 -58 504 -36 q 576 -118 558 -79 q 593 -210 593 -157 q 544 -321 593 -276 q 435 -382 496 -365 q 310 -399 375 -399 q 124 -352 214 -399 q 33 -219 33 -306 q 129 -87 33 -135 q 56 25 56 -49 q 79 99 56 65 q 142 150 103 133 q 40 329 40 218 q 115 488 40 424 q 286 551 190 551 q 417 539 288 551 q 629 533 488 533 l 629 471 m 510 -222 q 261 -108 510 -108 l 210 -108 q 181 -106 190 -108 q 118 -211 118 -137 q 156 -286 118 -254 q 240 -331 193 -318 q 332 -344 288 -344 q 456 -313 404 -344 q 510 -222 508 -282 m 271 499 q 192 458 217 499 q 167 360 167 417 q 208 228 167 296 q 308 160 249 160 q 387 200 363 160 q 411 299 411 240 q 372 432 411 365 q 271 499 333 499 z "},"h":{"ha":775,"x_min":33,"x_max":742,"o":"m 742 0 l 425 0 l 425 29 l 446 29 q 506 58 482 29 q 529 135 529 86 l 529 300 q 488 404 529 360 q 388 449 447 449 q 288 408 331 449 q 244 310 244 367 l 244 135 q 269 58 244 88 q 328 29 293 29 l 349 29 l 349 0 l 33 0 l 33 29 l 53 29 q 113 58 89 29 q 138 135 138 88 l 138 767 q 38 847 138 847 l 38 876 l 244 876 l 244 426 q 322 504 272 475 q 426 533 371 533 q 576 466 515 533 q 638 308 638 399 l 638 135 q 662 58 638 88 q 721 29 686 29 l 742 29 l 742 0 z "},"i":{"ha":383,"x_min":33,"x_max":350,"o":"m 350 0 l 35 0 l 33 29 l 54 29 q 114 58 90 29 q 138 135 138 88 l 138 425 q 38 504 138 504 l 38 533 l 246 533 l 246 135 q 270 58 246 88 q 329 29 294 29 l 350 29 l 350 0 m 242 765 q 253 753 242 765 q 265 707 265 742 q 242 649 265 672 q 183 625 218 625 q 126 649 150 625 q 101 707 101 674 q 126 765 101 740 q 183 789 150 789 q 242 765 218 789 z "},"j":{"ha":285,"x_min":13,"x_max":251,"o":"m 250 -151 q 205 -306 250 -243 q 71 -369 160 -369 q 13 -356 43 -369 l 29 -319 q 75 -340 50 -340 q 142 -208 142 -340 l 142 399 q 58 504 142 504 l 38 504 l 38 533 l 250 533 l 250 -151 m 227 765 q 239 752 227 765 q 251 707 251 740 q 227 649 251 674 q 169 625 203 625 q 112 649 136 625 q 88 707 88 674 q 112 765 88 740 q 169 789 136 789 q 227 765 203 789 z "},"k":{"ha":719,"x_min":33,"x_max":686,"o":"m 686 0 l 374 0 l 374 29 q 424 68 424 29 q 407 112 424 82 q 372 167 390 142 q 330 223 354 192 q 303 258 306 254 l 244 203 l 244 135 q 268 58 244 86 q 328 29 292 29 l 349 29 l 349 0 l 33 0 l 33 29 l 53 29 q 113 58 88 29 q 138 133 138 86 l 138 769 q 109 828 138 810 q 38 847 81 847 l 38 876 l 244 876 l 244 257 l 400 404 q 432 458 432 433 q 364 504 432 504 l 364 533 l 632 533 l 632 504 q 580 496 606 504 q 523 463 554 488 q 479 429 492 439 q 428 379 467 419 q 385 336 389 339 l 533 126 q 686 29 601 29 l 686 0 z "},"l":{"ha":383,"x_min":33,"x_max":350,"o":"m 350 0 l 33 0 l 33 29 l 54 29 q 113 58 89 29 q 138 135 138 88 l 138 767 q 38 847 138 847 l 38 876 l 246 876 l 246 135 q 270 58 246 88 q 329 29 294 29 l 350 29 l 350 0 z "},"m":{"ha":1136,"x_min":33,"x_max":1103,"o":"m 1103 0 l 786 0 l 786 29 l 807 29 q 867 58 843 29 q 890 135 890 86 l 890 300 q 854 406 890 364 q 758 449 818 449 q 672 422 713 449 q 615 354 632 396 q 621 244 621 306 q 620 189 621 225 q 619 135 619 153 q 643 58 619 88 q 703 29 667 29 l 724 29 l 724 0 l 407 0 l 407 29 l 428 29 q 487 58 463 29 q 511 135 511 88 l 511 300 q 474 405 511 361 q 378 449 438 449 q 283 408 321 449 q 246 310 246 367 l 246 135 q 270 58 246 88 q 329 29 294 29 l 350 29 l 350 0 l 33 0 l 33 29 l 54 29 q 115 58 90 29 q 139 135 139 88 l 139 425 q 39 504 139 504 l 39 533 l 246 533 l 246 426 q 418 533 307 533 q 525 501 478 533 q 597 413 572 468 q 678 505 635 476 q 792 533 721 533 q 944 458 889 533 q 999 276 999 382 l 999 135 q 1017 54 999 79 q 1103 29 1036 29 l 1103 0 z "},"n":{"ha":775,"x_min":33,"x_max":742,"o":"m 742 0 l 425 0 l 425 29 l 446 29 q 506 58 482 29 q 529 135 529 88 l 529 300 q 488 404 529 360 q 388 449 447 449 q 287 408 329 449 q 244 310 244 368 l 244 135 q 269 58 244 88 q 328 29 293 29 l 349 29 l 349 0 l 33 0 l 33 29 l 53 29 q 113 58 89 29 q 138 135 138 88 l 138 425 q 38 504 138 504 l 38 533 l 244 533 l 244 426 q 322 504 272 475 q 426 533 371 533 q 576 466 514 533 q 638 308 638 399 l 638 135 q 661 58 638 88 q 721 29 685 29 l 742 29 l 742 0 z "},"o":{"ha":676,"x_min":33,"x_max":643,"o":"m 552 470 q 598 430 552 470 q 643 267 643 389 q 552 64 643 144 q 338 -17 461 -17 q 124 65 215 -17 q 33 267 33 146 q 124 469 33 388 q 338 551 215 551 q 552 470 461 551 m 314 492 q 197 442 238 492 q 156 306 156 392 q 217 123 156 206 q 374 40 278 40 q 483 94 447 40 q 519 229 519 147 q 465 414 519 336 q 314 492 410 492 z "},"p":{"ha":726,"x_min":33,"x_max":693,"o":"m 616 463 q 655 420 616 463 q 693 263 693 378 q 616 63 693 147 q 425 -22 539 -22 q 247 49 325 -22 l 247 -247 q 251 -283 247 -269 q 258 -302 256 -297 q 272 -316 261 -307 q 285 -328 282 -325 q 351 -351 308 -350 l 351 -381 q 35 -379 246 -379 l 35 -351 l 56 -351 q 115 -322 90 -351 q 139 -246 139 -292 l 139 428 q 109 486 139 468 q 38 504 79 504 l 33 533 l 247 564 l 247 475 q 425 547 326 547 q 616 463 539 547 m 528 118 q 555 152 528 118 q 582 272 582 186 q 528 426 582 358 q 390 494 475 494 q 247 419 304 494 l 247 125 q 390 50 304 50 q 528 118 475 50 z "},"q":{"ha":725,"x_min":33,"x_max":692,"o":"m 692 -381 q 375 -379 586 -379 l 375 -351 l 396 -351 q 456 -324 432 -351 q 479 -246 479 -296 l 479 49 q 301 -22 406 -22 q 110 63 188 -22 q 33 263 33 147 q 110 463 33 378 q 301 547 188 547 q 479 475 404 547 l 479 533 l 688 533 l 688 504 q 617 485 647 504 q 588 428 588 467 l 588 -246 q 591 -285 588 -271 q 598 -305 594 -300 q 610 -317 601 -310 q 624 -328 619 -324 q 692 -351 646 -349 l 692 -381 m 479 125 l 479 419 q 336 494 422 494 q 198 426 251 494 q 144 272 144 358 q 198 118 144 186 q 336 50 251 50 q 479 125 422 50 z "},"r":{"ha":517,"x_min":33,"x_max":483,"o":"m 483 453 q 463 397 483 421 q 411 374 442 374 q 367 392 385 374 q 349 436 349 410 q 367 479 349 461 q 353 482 363 482 q 281 459 315 482 q 246 400 246 436 l 246 133 q 270 58 246 88 q 329 29 294 29 l 350 29 l 350 0 l 35 0 l 33 29 l 54 29 q 113 58 89 29 q 138 133 138 88 l 138 425 q 38 504 138 504 l 38 533 l 246 533 l 246 485 q 374 551 292 551 q 449 522 415 551 q 483 453 483 493 z "},"s":{"ha":457,"x_min":33,"x_max":424,"o":"m 424 146 q 365 27 424 72 q 232 -18 307 -18 q 128 -1 171 -18 q 82 15 86 15 q 69 9 76 15 q 63 -7 63 3 l 33 -7 l 33 160 l 63 160 q 104 58 63 94 q 213 21 146 21 q 291 47 260 21 q 322 115 322 72 q 277 181 322 151 q 178 231 232 211 q 80 294 125 251 q 35 396 35 338 q 91 508 35 465 q 219 550 147 550 q 296 537 254 550 q 347 524 338 524 q 365 540 365 524 l 394 540 l 394 415 l 365 415 q 328 483 365 458 q 233 508 292 508 q 157 484 186 508 q 128 419 128 460 q 158 367 128 390 q 232 326 189 344 q 319 285 275 307 q 393 228 363 264 q 424 146 424 193 z "},"t":{"ha":492,"x_min":33,"x_max":458,"o":"m 458 143 q 408 25 458 67 q 281 -17 358 -17 q 168 26 218 -17 q 118 128 118 68 l 118 504 l 33 504 l 33 543 l 225 724 l 225 533 l 421 533 l 421 504 l 225 504 l 225 140 q 257 80 225 106 q 325 54 289 54 q 428 143 404 54 l 458 143 z "},"u":{"ha":774,"x_min":33,"x_max":740,"o":"m 740 0 l 531 0 l 531 86 q 346 -18 469 -18 q 197 49 256 -18 q 139 206 139 115 l 139 369 q 116 474 139 443 q 33 504 93 504 l 33 533 l 246 533 l 246 213 q 282 107 246 149 q 389 65 318 65 q 488 107 444 65 q 531 204 531 149 l 531 399 q 506 475 531 446 q 447 504 482 504 l 426 504 l 426 533 l 639 533 l 639 108 q 662 51 639 75 q 718 28 685 28 q 728 28 722 28 q 738 29 733 29 l 740 0 z "},"v":{"ha":718,"x_min":33,"x_max":685,"o":"m 685 504 q 549 411 582 504 l 397 0 l 354 0 q 158 422 282 165 q 109 485 138 465 q 33 504 81 504 l 33 533 l 342 533 l 342 504 q 281 461 281 504 q 286 439 281 456 l 411 151 l 511 426 q 515 451 515 436 q 491 491 515 478 q 433 504 467 504 l 433 533 l 685 533 l 685 504 z "},"w":{"ha":1082,"x_min":33,"x_max":1049,"o":"m 1049 504 q 915 411 949 504 l 764 0 l 704 0 l 539 419 l 383 0 l 324 0 q 264 153 304 51 q 204 307 224 256 q 189 347 199 319 q 171 394 179 374 q 153 432 163 414 q 33 504 113 504 l 33 533 l 328 533 l 328 504 q 290 487 304 504 q 276 444 276 469 q 299 367 276 431 q 353 224 322 303 q 388 138 385 146 q 406 185 392 147 q 435 260 421 224 q 464 337 449 296 q 488 408 479 378 q 497 447 497 438 q 479 489 497 474 q 433 504 461 504 l 433 533 l 708 533 l 708 504 q 671 487 685 504 q 657 444 657 469 q 680 367 657 431 q 734 224 703 303 q 768 138 765 146 q 878 444 878 421 q 858 493 878 482 q 797 504 838 504 l 797 533 l 1049 533 l 1049 504 z "},"x":{"ha":718,"x_min":33,"x_max":685,"o":"m 685 504 l 668 504 q 469 367 581 504 l 406 285 l 474 182 q 667 29 572 29 l 667 0 l 356 0 l 356 29 l 365 29 q 404 69 404 29 q 371 140 404 92 l 332 193 q 243 56 243 89 q 279 28 243 28 l 304 28 l 304 0 l 46 0 l 46 29 l 63 29 q 100 35 81 29 q 135 49 119 42 q 170 74 150 57 q 202 101 190 90 q 233 134 214 111 q 260 166 253 157 q 286 199 267 175 q 308 228 306 224 q 247 317 289 258 q 226 349 243 322 q 200 387 208 376 q 174 420 192 397 q 144 454 157 443 q 112 479 131 465 q 74 499 93 493 q 33 504 54 504 l 33 533 l 342 533 l 342 504 q 294 467 294 504 q 324 403 294 447 l 382 319 l 443 390 q 489 474 489 446 q 447 504 489 504 l 429 504 l 429 533 l 685 533 l 685 504 z "},"y":{"ha":701,"x_min":33,"x_max":668,"o":"m 668 504 q 586 484 617 504 q 536 411 556 464 l 347 -93 q 240 -274 304 -204 q 71 -382 176 -344 l 71 -264 q 306 -82 257 -208 l 329 -19 l 164 410 q 117 483 144 463 q 33 504 90 504 l 33 533 l 329 533 l 329 504 q 290 490 306 504 q 275 457 275 476 q 278 442 275 453 l 389 138 l 472 365 q 494 446 494 429 q 435 504 494 504 l 435 533 l 668 533 l 668 504 z "},"z":{"ha":601,"x_min":33,"x_max":568,"o":"m 568 0 l 35 0 l 401 496 l 225 496 q 121 461 165 496 q 76 365 76 426 l 33 365 l 33 533 l 567 533 l 200 38 l 354 38 q 475 67 424 38 q 526 146 526 97 l 526 186 l 568 186 l 568 0 z "},"{":{"ha":451,"x_min":33,"x_max":418,"o":"m 33 276 l 33 301 q 133 346 90 311 q 176 433 176 381 q 162 531 176 467 q 147 631 147 596 q 227 798 147 728 q 418 882 307 868 l 418 853 q 314 802 356 842 q 272 701 272 763 q 285 603 272 669 q 297 500 297 536 q 245 376 297 429 q 115 290 193 322 q 297 76 297 214 q 285 -24 297 43 q 272 -122 272 -90 q 313 -222 272 -183 q 418 -276 354 -261 l 418 -306 q 227 -220 306 -289 q 149 -54 149 -151 q 163 44 149 -21 q 178 140 178 108 q 136 230 178 196 q 33 276 94 264 z "},"|":{"ha":694,"x_min":0,"x_max":0,"o":""},"}":{"ha":451,"x_min":33,"x_max":418,"o":"m 418 301 l 418 276 q 315 230 357 264 q 274 140 274 196 q 288 44 274 108 q 303 -54 303 -21 q 224 -220 303 -151 q 33 -306 146 -289 l 33 -276 q 138 -222 97 -261 q 179 -122 179 -183 q 167 -24 179 -90 q 154 76 154 43 q 336 290 154 214 q 206 376 258 322 q 154 500 154 429 q 167 603 154 536 q 179 701 179 669 q 138 802 179 763 q 33 853 96 842 l 33 882 q 224 798 144 868 q 304 631 304 728 q 290 531 304 596 q 275 433 275 467 q 318 346 275 381 q 418 301 361 311 z "},"~":{"ha":694,"x_min":0,"x_max":0,"o":""}," ":{"ha":382,"x_min":0,"x_max":0,"o":""},"¡":{"ha":213,"x_min":33,"x_max":179,"o":"m 42 -87 q 94 349 58 168 l 124 349 q 176 -135 176 75 q 174 -184 176 -158 q 166 -245 172 -210 q 145 -303 160 -281 q 108 -325 131 -325 q 56 -262 71 -325 q 42 -136 42 -200 l 42 -87 m 55 466 q 44 477 55 466 q 33 518 33 488 q 55 570 33 549 q 107 592 76 592 q 158 570 138 592 q 179 518 179 549 q 158 466 179 488 q 107 444 138 444 q 55 466 76 444 z "},"¢":{"ha":617,"x_min":33,"x_max":583,"o":"m 583 313 q 489 217 549 254 q 360 171 429 179 l 360 -1 l 300 -1 l 300 169 q 110 258 186 176 q 33 453 33 339 q 110 649 33 568 q 300 738 186 731 l 300 908 l 360 908 l 360 736 q 531 657 450 726 l 531 564 l 476 564 l 469 610 q 447 634 464 615 q 421 660 429 653 q 395 678 413 668 q 360 690 378 688 l 360 242 q 463 268 407 242 q 557 332 519 294 l 583 313 m 300 256 l 300 692 q 195 615 232 682 q 158 472 158 547 q 197 341 158 401 q 300 256 235 281 z "},"£":{"ha":692,"x_min":33,"x_max":658,"o":"m 610 219 q 658 89 658 154 q 621 8 658 35 q 528 -18 583 -18 q 474 -12 503 -18 q 431 -1 446 -6 q 377 19 415 4 q 332 36 339 33 q 175 -18 282 -18 q 33 68 33 -18 q 66 126 33 106 q 138 146 99 146 q 192 140 164 146 q 257 119 219 133 q 308 101 294 106 q 326 188 326 139 q 264 365 326 260 l 90 365 l 90 424 l 231 424 q 151 679 151 567 q 221 837 151 779 q 392 894 290 894 q 549 848 479 894 q 618 718 618 801 q 568 578 618 653 l 542 589 q 547 654 547 617 q 509 778 547 715 q 414 840 471 840 q 313 800 351 840 q 274 696 274 760 q 316 540 274 646 q 361 424 358 433 l 546 424 l 546 365 l 379 365 q 396 240 396 311 q 363 85 396 157 q 481 64 436 64 q 592 143 592 64 q 581 200 592 171 l 610 219 m 279 56 q 182 83 206 83 q 140 51 140 83 q 153 28 140 38 q 179 19 165 19 l 203 19 q 279 56 246 19 z "},"¤":{"ha":972,"x_min":33,"x_max":939,"o":"m 939 -15 l 910 -18 q 864 18 900 18 q 806 1 856 18 q 744 -18 756 -15 q 643 -28 697 -28 q 319 82 461 -28 q 149 368 176 192 l 33 368 l 82 426 l 143 426 q 144 467 143 453 l 39 467 l 89 525 l 151 525 q 325 799 188 696 q 639 901 463 901 q 736 892 681 901 q 788 878 749 890 q 846 867 826 867 q 896 896 888 867 l 924 892 l 924 663 l 896 658 q 794 787 867 742 q 631 832 722 832 q 410 744 503 832 q 290 525 318 656 l 764 525 l 714 467 l 282 467 q 281 447 282 460 q 281 426 281 433 l 681 426 l 632 368 l 288 368 q 403 138 310 232 q 631 44 497 44 q 911 211 825 44 l 939 204 l 939 -15 z "},"¥":{"ha":1019,"x_min":33,"x_max":986,"o":"m 986 863 q 815 783 881 863 l 600 525 l 810 525 l 810 467 l 569 467 l 569 426 l 810 426 l 810 368 l 569 368 l 569 135 q 594 65 569 100 q 653 29 619 29 l 674 29 l 674 0 l 351 0 l 351 29 l 372 29 q 430 65 404 29 q 456 135 456 101 l 456 368 l 211 368 l 211 426 l 456 426 l 456 467 l 211 467 l 211 525 l 407 525 l 193 783 q 120 840 164 818 q 33 863 76 863 l 33 893 l 436 893 l 436 863 l 392 863 q 344 836 344 863 q 363 794 344 817 l 558 558 l 736 771 q 756 817 756 793 q 740 849 756 838 q 712 861 725 860 q 675 863 699 863 l 675 893 l 986 893 l 986 863 z "},"¦":{"ha":694,"x_min":0,"x_max":0,"o":""},"§":{"ha":3014,"x_min":38,"x_max":2975,"o":"m 38 1042 l 215 1042 l 215 0 l 38 0 l 38 1042 m 2806 1042 l 2975 1042 l 2975 0 l 2806 0 l 2806 1042 m 1735 650 q 1791 753 1756 706 q 1874 834 1826 800 q 1980 887 1922 868 q 2100 906 2038 906 q 2220 887 2163 906 q 2326 834 2278 868 q 2409 753 2374 800 q 2465 650 2444 706 l 2636 650 q 2585 781 2619 719 q 2503 894 2551 843 q 2397 982 2456 944 q 2269 1042 2338 1019 l 1931 1042 q 1803 982 1863 1019 q 1697 894 1744 944 q 1615 781 1649 843 q 1564 650 1581 719 l 1735 650 m 2465 383 q 2409 281 2444 328 q 2326 199 2374 233 q 2220 147 2278 165 q 2100 128 2163 128 q 1980 147 2038 128 q 1874 199 1922 165 q 1791 281 1826 233 q 1735 383 1756 328 l 1564 383 q 1688 149 1597 250 q 1906 0 1779 49 l 2296 0 q 2513 149 2422 49 q 2636 383 2603 250 l 2465 383 m 1282 383 q 1225 281 1261 328 q 1141 199 1189 233 q 1035 147 1093 165 q 915 128 978 128 q 796 147 853 128 q 691 199 739 165 q 607 281 643 233 q 550 383 571 328 l 381 383 q 428 258 397 317 q 503 149 460 199 q 603 62 547 100 q 721 0 658 24 l 1111 0 q 1229 62 1174 24 q 1328 149 1285 100 q 1403 258 1372 199 q 1451 383 1435 317 l 1282 383 m 551 650 q 608 753 572 706 q 691 834 643 800 q 796 887 739 868 q 915 906 853 906 q 1035 887 978 906 q 1141 834 1093 868 q 1224 753 1189 800 q 1281 650 1260 706 l 1451 650 q 1401 781 1435 719 q 1319 894 1367 843 q 1212 982 1271 944 q 1086 1042 1153 1019 l 746 1042 q 620 982 679 1019 q 513 894 561 944 q 431 781 465 843 q 381 650 397 719 l 551 650 m 381 622 l 513 622 l 513 581 l 435 581 l 435 535 l 504 535 l 504 490 l 433 490 l 433 410 l 381 410 l 381 622 m 1397 622 l 1458 622 l 1557 481 l 1557 622 l 1610 622 l 1610 410 l 1561 410 l 1449 554 l 1449 410 l 1397 410 l 1397 622 m 2024 622 l 2183 622 l 2183 569 l 2139 569 l 2139 410 l 2068 410 l 2068 571 l 2024 571 l 2024 622 m 919 633 q 878 628 900 633 q 839 608 857 622 q 808 569 821 594 q 796 506 796 544 q 813 444 796 467 q 851 411 831 422 q 908 394 876 397 q 968 411 942 397 q 1010 446 992 422 q 1029 514 1029 469 q 1012 582 1029 558 q 974 617 994 606 q 919 633 949 631 m 910 447 q 879 457 893 450 q 859 476 868 464 q 850 510 850 488 q 856 544 850 531 q 872 567 863 558 q 894 578 882 575 q 915 581 906 581 q 944 572 931 579 q 965 551 956 565 q 975 514 975 538 q 965 476 975 489 q 942 456 954 463 q 910 447 926 449 m 2486 463 q 2512 453 2497 457 q 2544 449 2526 449 q 2569 453 2558 449 q 2579 469 2579 457 q 2563 489 2579 483 q 2528 501 2547 494 q 2494 519 2510 507 q 2479 561 2479 532 q 2488 592 2479 579 q 2509 612 2496 604 q 2539 622 2522 619 q 2571 625 2556 625 q 2625 617 2604 625 l 2621 574 q 2575 583 2601 583 q 2551 581 2564 583 q 2538 564 2538 578 q 2553 547 2538 551 q 2587 535 2568 542 q 2621 517 2606 529 q 2636 476 2636 506 q 2608 422 2636 436 q 2544 408 2581 408 q 2513 410 2529 408 q 2481 417 2496 411 l 2486 463 z "},"¨":{"ha":285,"x_min":33,"x_max":251,"o":"m 47 573 q 40 580 47 573 q 33 604 33 586 q 46 635 33 622 q 78 649 58 649 q 110 636 97 649 q 124 604 124 624 q 110 573 124 586 q 78 560 97 560 q 47 573 60 560 m 176 573 q 169 580 176 573 q 163 604 163 586 q 176 635 163 622 q 207 649 189 649 q 238 635 225 649 q 251 604 251 622 q 238 573 251 586 q 207 560 225 560 q 176 573 189 560 z "},"©":{"ha":919,"x_min":33,"x_max":886,"o":"m 158 136 q 96 199 158 136 q 33 438 33 261 q 158 739 33 614 q 460 864 283 864 q 761 739 636 864 q 886 438 886 614 q 761 136 886 261 q 460 11 636 11 q 158 136 283 11 m 190 708 q 134 652 190 708 q 78 438 78 596 q 190 167 78 279 q 460 56 301 56 q 730 167 618 56 q 842 438 842 279 q 730 708 842 596 q 460 819 618 819 q 190 708 301 819 m 667 201 q 467 131 576 131 q 249 217 342 131 q 156 429 156 304 q 250 644 156 558 q 474 731 344 731 q 536 725 508 731 q 572 714 544 724 q 608 704 599 704 q 638 725 633 704 l 657 722 l 657 576 l 636 576 q 571 656 618 628 q 468 683 524 683 q 306 606 369 683 q 243 429 243 529 q 307 253 243 329 q 468 176 371 176 q 646 279 588 176 l 667 279 l 667 201 z "},"ª":{"ha":318,"x_min":33,"x_max":285,"o":"m 285 644 q 235 615 269 615 q 185 644 200 615 q 119 615 156 615 q 63 631 86 615 q 39 678 39 646 q 176 764 39 749 l 176 792 q 160 840 176 821 q 117 860 144 860 q 73 844 93 860 q 47 806 53 828 l 33 807 q 65 875 33 849 q 138 901 96 901 q 214 866 194 901 q 233 771 233 831 q 233 738 233 760 q 232 708 232 717 q 238 666 232 678 q 264 654 244 654 q 276 656 272 654 l 285 644 m 176 681 l 176 740 q 124 724 149 740 q 99 682 99 708 q 139 644 99 644 q 165 656 153 644 q 176 681 176 667 z "},"«":{"ha":371,"x_min":33,"x_max":338,"o":"m 213 263 l 192 246 l 33 419 l 190 593 l 213 576 l 132 419 l 213 263 m 338 263 l 317 246 l 158 419 l 315 593 l 338 576 l 257 419 l 338 263 z "},"¬":{"ha":693,"x_min":33,"x_max":660,"o":"m 660 501 l 660 219 l 583 219 l 583 425 l 33 425 l 33 501 l 660 501 z "},"®":{"ha":467,"x_min":33,"x_max":433,"o":"m 33 688 q 92 830 33 771 q 232 889 150 889 q 374 830 315 889 q 433 688 433 771 q 374 547 433 606 q 232 489 315 489 q 92 547 150 489 q 33 688 33 606 m 112 809 q 87 784 112 809 q 63 688 63 758 q 112 567 63 617 q 232 518 161 518 q 353 567 303 518 q 404 688 404 617 q 353 809 404 758 q 232 860 303 860 q 112 809 161 860 m 354 588 l 297 588 q 268 631 285 600 q 243 672 251 663 q 214 689 231 688 l 192 689 l 192 624 q 213 596 192 596 l 218 596 l 218 588 l 135 588 l 135 596 l 140 596 q 163 624 163 596 l 163 788 q 135 808 163 808 l 135 817 l 229 817 q 278 799 257 817 q 300 753 300 781 q 257 693 300 713 q 297 642 265 688 q 354 596 328 596 l 354 588 m 268 750 q 253 785 268 771 q 219 799 239 799 l 192 799 l 192 704 l 206 704 q 268 750 268 704 z "},"¯":{"ha":232,"x_min":33,"x_max":199,"o":"m 199 551 l 33 551 l 33 601 l 199 601 l 199 551 z "},"°":{"ha":342,"x_min":33,"x_max":308,"o":"m 308 774 q 267 684 308 721 q 171 647 225 647 q 74 684 115 647 q 33 774 33 721 q 74 865 33 828 q 171 901 115 901 q 267 865 226 901 q 308 774 308 828 m 157 875 q 107 849 126 875 q 88 793 88 824 q 115 712 88 751 q 183 672 143 672 q 233 699 214 672 q 251 757 251 725 q 226 838 251 801 q 157 875 200 875 z "},"±":{"ha":693,"x_min":33,"x_max":660,"o":"m 660 425 l 385 425 l 385 150 l 308 150 l 308 425 l 33 425 l 33 501 l 308 501 l 308 776 l 385 776 l 385 501 l 660 501 l 660 425 m 660 0 l 33 0 l 33 76 l 660 76 l 660 0 z "},"²":{"ha":329,"x_min":33,"x_max":296,"o":"m 296 564 l 43 564 l 43 588 q 107 633 53 596 q 190 703 161 671 q 218 771 218 736 q 193 832 218 810 q 129 854 168 854 q 50 814 81 854 l 33 822 q 83 875 50 856 q 154 894 115 894 q 247 860 208 894 q 285 771 285 825 q 253 693 285 729 q 189 638 222 657 q 110 594 156 618 q 94 588 99 590 l 160 588 q 279 656 263 588 l 296 656 l 296 564 z "},"³":{"ha":368,"x_min":33,"x_max":335,"o":"m 335 532 q 288 428 335 469 q 178 386 240 386 q 93 409 132 386 q 33 472 54 432 l 50 481 q 151 433 93 433 q 229 460 201 433 q 257 538 257 488 q 225 616 257 585 q 144 647 193 647 l 144 679 l 157 679 q 208 708 188 679 q 229 768 229 736 q 206 830 229 806 q 146 854 183 854 q 63 814 94 854 l 46 822 q 95 875 63 856 q 165 894 128 894 q 258 859 218 894 q 297 771 297 824 q 238 669 297 704 q 308 615 281 651 q 335 532 335 578 z "},"´":{"ha":300,"x_min":14,"x_max":272,"o":"m 272 710 q 263 669 272 685 q 225 639 254 654 l 72 558 l 14 558 l 143 722 q 214 764 176 764 q 253 748 235 764 q 272 710 272 732 z "},"µ":{"ha":681,"x_min":33,"x_max":647,"o":"m 529 535 l 529 160 q 575 54 529 54 q 622 128 614 54 l 647 128 q 613 25 638 64 q 533 -14 589 -14 q 460 20 486 -14 q 431 107 435 54 q 218 -14 321 -14 q 115 28 164 -14 l 115 22 q 131 -62 115 1 q 142 -126 142 -103 q 128 -176 142 -154 q 88 -197 114 -197 q 47 -174 61 -197 q 33 -124 33 -151 q 40 -82 33 -110 q 69 118 69 13 l 69 535 l 169 535 l 169 208 q 190 98 169 133 q 269 63 210 63 q 431 142 349 63 l 431 535 l 529 535 z "},"¶":{"ha":825,"x_min":33,"x_max":792,"o":"m 374 878 l 792 878 l 792 835 l 733 835 q 679 812 701 835 q 657 757 657 789 l 657 -337 l 575 -337 l 575 814 l 499 814 l 499 -337 l 422 -337 l 422 194 l 374 194 q 133 294 233 194 q 33 536 33 394 q 133 777 33 676 q 374 878 233 878 z "},"·":{"ha":213,"x_min":33,"x_max":179,"o":"m 158 452 q 168 441 158 452 q 179 400 179 431 q 158 349 179 369 q 106 328 138 328 q 54 349 75 328 q 33 400 33 369 q 54 452 33 431 q 106 474 75 474 q 158 452 136 474 z "},"¸":{"ha":271,"x_min":33,"x_max":238,"o":"m 238 -129 q 216 -177 238 -157 q 160 -207 194 -197 q 95 -220 126 -217 q 33 -224 64 -224 l 35 -194 q 74 -193 60 -194 q 108 -187 88 -192 q 140 -168 129 -182 q 150 -132 150 -154 q 78 -71 150 -96 l 161 42 l 186 25 l 144 -33 q 210 -69 183 -43 q 238 -129 238 -94 z "},"¹":{"ha":256,"x_min":33,"x_max":222,"o":"m 222 567 l 33 567 l 33 585 l 46 585 q 81 601 67 585 q 96 647 96 617 l 96 828 q 88 849 96 840 q 67 858 79 858 q 38 851 61 858 l 33 868 l 160 901 l 160 647 q 174 601 160 617 q 210 585 189 585 l 222 585 l 222 567 z "},"º":{"ha":372,"x_min":33,"x_max":339,"o":"m 339 758 q 293 657 339 699 q 186 615 247 615 q 79 657 125 615 q 33 758 33 699 q 78 860 33 819 q 186 901 124 901 q 294 860 249 901 q 339 758 339 819 m 171 872 q 116 843 138 872 q 94 781 94 814 q 125 689 94 733 q 200 644 156 644 q 256 674 235 644 q 276 739 276 704 q 247 831 276 789 q 171 872 218 872 z "},"»":{"ha":371,"x_min":33,"x_max":338,"o":"m 33 263 l 114 419 l 33 576 l 56 593 l 213 419 l 54 246 l 33 263 m 158 263 l 239 419 l 158 576 l 181 593 l 338 419 l 179 246 l 158 263 z "},"¼":{"ha":931,"x_min":33,"x_max":897,"o":"m 275 132 l 33 132 l 33 154 l 50 154 q 95 174 78 154 q 113 235 113 194 l 113 463 q 103 490 113 479 q 76 501 93 501 q 40 493 74 501 l 35 514 l 196 556 l 196 235 q 213 174 196 194 q 258 154 231 154 l 275 154 l 275 132 m 707 561 l 303 -78 l 190 -78 l 664 561 l 707 561 m 897 0 l 811 0 l 811 -224 l 729 -224 l 729 0 l 450 0 l 450 60 l 761 406 l 811 406 l 811 83 l 897 83 l 897 0 m 729 83 l 729 310 l 528 83 l 729 83 z "},"½":{"ha":974,"x_min":33,"x_max":940,"o":"m 940 0 l 619 0 l 619 31 q 700 89 632 42 q 804 177 768 136 q 840 261 840 218 q 809 339 840 310 q 729 368 778 368 q 628 317 665 368 l 607 328 q 670 395 629 371 q 760 419 711 419 q 877 374 828 419 q 926 263 926 329 q 919 215 926 238 q 893 170 913 192 q 861 135 874 149 q 816 101 849 121 q 774 76 783 82 q 725 49 764 69 q 685 29 686 29 l 767 29 q 864 50 819 29 q 918 117 908 71 l 940 117 l 940 0 m 275 132 l 33 132 l 33 154 l 50 154 q 95 174 78 154 q 113 235 113 194 l 113 463 q 103 490 113 479 q 76 501 93 501 q 40 493 74 501 l 35 514 l 196 556 l 196 235 q 213 174 196 194 q 258 154 231 154 l 275 154 l 275 132 m 707 561 l 303 -78 l 190 -78 l 664 561 l 707 561 z "},"¾":{"ha":1133,"x_min":33,"x_max":1100,"o":"m 415 94 q 356 -38 415 15 q 215 -92 296 -92 q 109 -62 158 -92 q 33 18 60 -32 l 56 29 q 183 -31 106 -31 q 281 4 246 -31 q 317 101 317 39 q 276 201 317 161 q 175 240 236 240 l 175 281 l 189 281 q 255 317 228 281 q 282 393 282 353 q 253 472 282 442 q 176 503 224 503 q 69 451 113 503 l 49 463 q 112 530 71 506 q 201 554 153 554 q 319 509 269 554 q 368 397 368 464 q 347 323 368 358 q 293 268 326 288 q 381 199 347 246 q 415 94 415 151 m 1100 0 l 1014 0 l 1014 -224 l 932 -224 l 932 0 l 653 0 l 653 60 l 964 406 l 1014 406 l 1014 83 l 1100 83 l 1100 0 m 932 83 l 932 310 l 731 83 l 932 83 m 906 561 l 501 -78 l 389 -78 l 863 561 l 906 561 z "},"¿":{"ha":460,"x_min":33,"x_max":426,"o":"m 33 -133 q 72 -15 33 -62 q 159 64 93 10 q 262 167 225 118 q 299 274 299 217 q 294 311 299 292 l 340 321 q 348 281 342 310 q 354 238 354 253 q 333 147 354 189 q 283 73 313 104 q 222 13 253 42 q 171 -52 192 -17 q 150 -126 150 -87 q 182 -229 150 -189 q 275 -269 214 -269 q 399 -203 349 -269 l 426 -218 q 351 -306 401 -274 q 239 -337 300 -337 q 94 -278 154 -337 q 33 -133 33 -218 m 253 430 q 243 441 253 430 q 232 482 232 451 q 253 534 232 513 q 306 556 275 556 q 357 534 336 556 q 378 482 378 513 q 357 430 378 451 q 306 408 336 408 q 253 430 275 408 z "},"À":{"ha":996,"x_min":33,"x_max":963,"o":"m 963 0 l 633 0 l 633 29 q 710 81 710 29 q 615 333 710 97 l 301 333 q 278 269 299 325 q 244 172 257 213 q 232 110 232 131 q 258 50 232 71 q 325 29 285 29 l 325 0 l 33 0 l 33 29 l 47 29 q 126 64 88 29 q 178 139 164 99 l 431 893 l 519 893 l 811 139 q 872 61 829 93 q 963 29 915 29 l 963 0 m 590 397 l 447 764 l 324 397 l 590 397 m 299 1069 q 317 1108 299 1092 q 357 1124 336 1124 q 428 1082 394 1124 l 557 918 l 499 918 l 346 999 q 308 1029 317 1014 q 299 1069 299 1044 z "},"Á":{"ha":996,"x_min":33,"x_max":963,"o":"m 963 0 l 633 0 l 633 29 q 710 81 710 29 q 615 333 710 97 l 301 333 q 278 269 299 325 q 244 172 257 213 q 232 110 232 131 q 258 50 232 71 q 325 29 285 29 l 325 0 l 33 0 l 33 29 l 47 29 q 126 64 88 29 q 178 139 164 99 l 431 893 l 519 893 l 811 139 q 872 61 829 93 q 963 29 915 29 l 963 0 m 590 397 l 447 764 l 324 397 l 590 397 m 692 1069 q 683 1029 692 1044 q 644 999 674 1014 l 492 918 l 433 918 l 563 1082 q 633 1124 596 1124 q 673 1108 654 1124 q 692 1069 692 1092 z "},"Â":{"ha":996,"x_min":33,"x_max":963,"o":"m 963 0 l 633 0 l 633 29 q 710 81 710 29 q 615 333 710 97 l 301 333 q 278 269 299 325 q 244 172 257 213 q 232 110 232 131 q 258 50 232 71 q 325 29 285 29 l 325 0 l 33 0 l 33 29 l 47 29 q 126 64 88 29 q 178 139 164 99 l 431 893 l 519 893 l 811 139 q 872 61 829 93 q 963 29 915 29 l 963 0 m 590 397 l 447 764 l 324 397 l 590 397 m 646 929 l 629 908 l 472 989 l 315 908 l 299 931 l 472 1088 l 646 929 z "},"Ã":{"ha":996,"x_min":33,"x_max":963,"o":"m 963 0 l 633 0 l 633 29 q 710 81 710 29 q 615 333 710 97 l 301 333 q 278 269 299 325 q 244 172 257 213 q 232 110 232 131 q 258 50 232 71 q 325 29 285 29 l 325 0 l 33 0 l 33 29 l 47 29 q 126 64 88 29 q 178 139 164 99 l 431 893 l 519 893 l 811 139 q 872 61 829 93 q 963 29 915 29 l 963 0 m 590 397 l 447 764 l 324 397 l 590 397 m 638 1021 q 542 918 617 918 q 465 935 522 918 q 388 951 408 951 q 353 913 358 951 l 324 919 q 332 951 325 921 q 364 1003 339 983 q 421 1022 389 1022 q 499 1006 447 1022 q 576 989 551 989 q 610 1028 604 989 l 638 1021 z "},"Ä":{"ha":996,"x_min":33,"x_max":963,"o":"m 963 0 l 633 0 l 633 29 q 710 81 710 29 q 615 333 710 97 l 301 333 q 278 269 299 325 q 244 172 257 213 q 232 110 232 131 q 258 50 232 71 q 325 29 285 29 l 325 0 l 33 0 l 33 29 l 47 29 q 126 64 88 29 q 178 139 164 99 l 431 893 l 519 893 l 811 139 q 872 61 829 93 q 963 29 915 29 l 963 0 m 590 397 l 447 764 l 324 397 l 590 397 m 363 964 q 376 996 363 983 q 407 1008 389 1008 q 440 996 426 1008 q 453 964 453 983 q 440 933 453 946 q 407 919 426 919 q 376 933 389 919 q 363 964 363 946 m 492 964 q 504 996 492 983 q 536 1008 517 1008 q 568 996 556 1008 q 581 964 581 983 q 567 933 581 946 q 536 919 554 919 q 505 933 518 919 q 492 964 492 946 z "},"Å":{"ha":996,"x_min":33,"x_max":963,"o":"m 963 0 l 633 0 l 633 29 q 710 81 710 29 q 615 333 710 97 l 301 333 q 278 269 299 325 q 244 172 257 213 q 232 110 232 131 q 258 50 232 71 q 325 29 285 29 l 325 0 l 33 0 l 33 29 l 47 29 q 126 64 88 29 q 178 139 164 99 l 431 893 l 519 893 l 811 139 q 872 61 829 93 q 963 29 915 29 l 963 0 m 590 397 l 447 764 l 324 397 l 590 397 m 553 1062 q 570 1045 553 1062 q 586 985 586 1029 q 553 908 586 940 q 476 875 521 875 q 398 907 431 875 q 365 985 365 939 q 398 1063 365 1031 q 476 1094 431 1094 q 553 1062 521 1094 m 528 933 q 538 943 528 933 q 549 985 549 954 q 528 1037 549 1015 q 476 1058 507 1058 q 424 1037 446 1058 q 403 985 403 1015 q 424 933 403 954 q 476 911 446 911 q 528 933 507 911 z "},"Æ":{"ha":1282,"x_min":33,"x_max":1249,"o":"m 1249 186 l 1201 0 l 575 0 l 575 29 l 596 29 q 655 58 631 29 q 679 133 679 88 l 679 425 l 443 425 l 268 138 q 253 83 253 110 q 324 29 253 29 l 324 0 l 33 0 l 33 29 l 47 29 q 138 65 89 29 q 210 142 186 101 l 607 804 q 511 863 600 863 l 511 892 l 1189 892 l 1189 736 l 1160 736 q 1132 804 1160 776 q 1064 832 1104 832 l 793 832 l 793 486 l 1032 486 q 1100 514 1072 486 q 1128 582 1128 542 l 1157 582 l 1157 329 l 1128 329 q 1100 397 1128 369 q 1032 425 1072 425 l 793 425 l 793 164 q 819 95 793 131 q 876 60 844 60 q 970 59 908 60 q 1063 58 1032 58 q 1160 98 1117 58 q 1221 193 1203 138 l 1249 186 m 679 486 l 679 818 l 479 486 l 679 486 z "},"Ç":{"ha":863,"x_min":33,"x_max":829,"o":"m 829 92 q 518 -19 692 -19 q 178 116 322 -19 q 33 446 33 251 q 181 779 33 644 q 529 914 328 914 q 626 906 578 914 q 681 888 638 903 q 739 874 724 874 q 785 904 776 874 l 814 900 l 814 675 l 782 675 q 681 797 756 753 q 521 840 607 840 q 269 721 368 840 q 171 444 171 601 q 270 172 171 290 q 521 53 369 53 q 797 211 708 53 l 829 211 l 829 92 m 544 -151 q 523 -199 544 -179 q 467 -229 501 -219 q 402 -242 433 -239 q 340 -246 371 -246 l 342 -217 q 381 -215 367 -217 q 415 -209 394 -214 q 447 -190 436 -204 q 457 -154 457 -176 q 385 -93 457 -118 l 468 19 l 493 3 l 451 -56 q 517 -91 490 -65 q 544 -151 544 -117 z "},"È":{"ha":740,"x_min":33,"x_max":707,"o":"m 707 186 l 660 0 l 33 0 l 33 29 l 54 29 q 113 58 89 29 q 138 135 138 88 l 138 783 q 38 863 138 863 l 38 893 l 649 893 l 649 736 l 618 736 q 590 804 618 776 q 522 832 563 832 l 251 832 l 251 486 l 490 486 q 558 514 531 486 q 586 582 586 542 l 615 582 l 615 329 l 586 329 q 558 398 586 369 q 490 426 531 426 l 251 426 l 251 164 q 282 90 251 121 q 356 60 313 60 l 521 60 q 620 100 574 60 q 679 193 667 140 l 707 186 m 235 1069 q 253 1108 235 1092 q 293 1124 272 1124 q 364 1082 331 1124 l 493 918 l 435 918 l 282 999 q 244 1029 253 1014 q 235 1069 235 1044 z "},"É":{"ha":740,"x_min":33,"x_max":707,"o":"m 707 186 l 660 0 l 33 0 l 33 29 l 54 29 q 113 58 89 29 q 138 135 138 88 l 138 783 q 38 863 138 863 l 38 893 l 649 893 l 649 736 l 618 736 q 590 804 618 776 q 522 832 563 832 l 251 832 l 251 486 l 490 486 q 558 514 531 486 q 586 582 586 542 l 615 582 l 615 329 l 586 329 q 558 398 586 369 q 490 426 531 426 l 251 426 l 251 164 q 282 90 251 121 q 356 60 313 60 l 521 60 q 620 100 574 60 q 679 193 667 140 l 707 186 m 540 1069 q 531 1029 540 1044 q 493 999 522 1014 l 340 918 l 282 918 l 411 1082 q 482 1124 444 1124 q 522 1108 503 1124 q 540 1069 540 1092 z "},"Ê":{"ha":740,"x_min":33,"x_max":707,"o":"m 707 186 l 660 0 l 33 0 l 33 29 l 54 29 q 113 58 89 29 q 138 135 138 88 l 138 783 q 38 863 138 863 l 38 893 l 649 893 l 649 736 l 618 736 q 590 804 618 776 q 522 832 563 832 l 251 832 l 251 486 l 490 486 q 558 514 531 486 q 586 582 586 542 l 615 582 l 615 329 l 586 329 q 558 398 586 369 q 490 426 531 426 l 251 426 l 251 164 q 282 90 251 121 q 356 60 313 60 l 521 60 q 620 100 574 60 q 679 193 667 140 l 707 186 m 543 929 l 526 908 l 369 989 l 213 908 l 196 931 l 369 1088 l 543 929 z "},"Ë":{"ha":740,"x_min":33,"x_max":707,"o":"m 707 186 l 660 0 l 33 0 l 33 29 l 54 29 q 113 58 89 29 q 138 135 138 88 l 138 783 q 38 863 138 863 l 38 893 l 649 893 l 649 736 l 618 736 q 590 804 618 776 q 522 832 563 832 l 251 832 l 251 486 l 490 486 q 558 514 531 486 q 586 582 586 542 l 615 582 l 615 329 l 586 329 q 558 398 586 369 q 490 426 531 426 l 251 426 l 251 164 q 282 90 251 121 q 356 60 313 60 l 521 60 q 620 100 574 60 q 679 193 667 140 l 707 186 m 261 964 q 274 996 261 983 q 306 1008 286 1008 q 338 996 325 1008 q 351 964 351 983 q 338 933 351 946 q 306 919 325 919 q 274 933 288 919 q 261 964 261 946 m 390 964 q 403 996 390 983 q 435 1008 417 1008 q 466 996 453 1008 q 479 964 479 983 q 466 933 479 946 q 435 919 453 919 q 403 933 417 919 q 390 964 390 946 z "},"Ì":{"ha":388,"x_min":7,"x_max":354,"o":"m 354 0 l 35 0 l 33 29 l 53 29 q 113 58 88 29 q 138 135 138 88 l 138 783 q 38 863 138 863 l 38 893 l 350 893 l 350 863 q 250 783 250 863 l 250 135 q 274 58 250 88 q 335 29 299 29 l 354 29 l 354 0 m 7 1069 q 26 1108 7 1092 q 65 1124 44 1124 q 136 1082 103 1124 l 265 918 l 207 918 l 54 999 q 16 1029 25 1014 q 7 1069 7 1044 z "},"Í":{"ha":388,"x_min":33,"x_max":382,"o":"m 354 0 l 35 0 l 33 29 l 53 29 q 113 58 88 29 q 138 135 138 88 l 138 783 q 38 863 138 863 l 38 893 l 350 893 l 350 863 q 250 783 250 863 l 250 135 q 274 58 250 88 q 335 29 299 29 l 354 29 l 354 0 m 382 1069 q 373 1029 382 1044 q 335 999 364 1014 l 182 918 l 124 918 l 253 1082 q 324 1124 286 1124 q 363 1108 344 1124 q 382 1069 382 1092 z "},"Î":{"ha":388,"x_min":21,"x_max":368,"o":"m 354 0 l 35 0 l 33 29 l 53 29 q 113 58 88 29 q 138 135 138 88 l 138 783 q 38 863 138 863 l 38 893 l 350 893 l 350 863 q 250 783 250 863 l 250 135 q 274 58 250 88 q 335 29 299 29 l 354 29 l 354 0 m 368 929 l 351 908 l 194 989 l 38 908 l 21 931 l 194 1088 l 368 929 z "},"Ï":{"ha":388,"x_min":33,"x_max":354,"o":"m 354 0 l 35 0 l 33 29 l 53 29 q 113 58 88 29 q 138 135 138 88 l 138 783 q 38 863 138 863 l 38 893 l 350 893 l 350 863 q 250 783 250 863 l 250 135 q 274 58 250 88 q 335 29 299 29 l 354 29 l 354 0 m 85 964 q 98 996 85 983 q 129 1008 111 1008 q 162 996 149 1008 q 175 964 175 983 q 162 933 175 946 q 129 919 149 919 q 98 933 111 919 q 85 964 85 946 m 214 964 q 226 996 214 983 q 258 1008 239 1008 q 290 996 278 1008 q 303 964 303 983 q 290 933 303 946 q 258 919 276 919 q 227 933 240 919 q 214 964 214 946 z "},"Ð":{"ha":1067,"x_min":33,"x_max":1033,"o":"m 181 425 l 36 425 l 36 501 l 181 501 l 181 758 q 155 827 181 792 q 97 863 129 863 l 33 863 l 33 893 l 601 893 q 908 760 782 893 q 1033 446 1033 628 q 908 132 1033 264 q 601 0 783 0 l 67 0 l 67 29 q 122 33 100 29 q 162 56 143 38 q 181 108 181 75 l 181 425 m 293 501 l 482 501 l 482 425 l 293 425 l 293 164 q 324 90 293 121 q 399 60 356 60 l 499 60 q 782 171 664 60 q 900 446 900 282 q 782 726 900 611 q 499 842 664 842 l 293 842 l 293 501 z "},"Ñ":{"ha":1139,"x_min":33,"x_max":1106,"o":"m 1106 863 l 1063 863 q 1002 832 1028 863 q 976 758 976 801 l 976 0 l 932 0 l 272 724 l 272 135 q 297 59 272 89 q 356 29 321 29 l 407 29 l 407 0 l 97 0 l 97 29 l 131 29 q 190 59 165 29 q 214 135 214 89 l 214 785 q 33 863 132 863 l 33 893 l 290 893 l 921 207 l 921 758 q 896 832 921 801 q 836 863 871 863 l 786 863 l 786 893 l 1106 893 l 1106 863 m 726 1021 q 631 918 706 918 q 554 935 611 918 q 476 951 497 951 q 442 913 447 951 l 413 919 q 421 951 414 921 q 453 1003 428 983 q 510 1022 478 1022 q 588 1006 536 1022 q 665 989 640 989 q 699 1028 693 989 l 726 1021 z "},"Ò":{"ha":997,"x_min":33,"x_max":964,"o":"m 964 446 q 827 117 964 254 q 499 -19 690 -19 q 170 117 307 -19 q 33 446 33 254 q 170 776 33 638 q 499 914 307 914 q 828 776 692 914 q 964 446 964 639 m 464 856 q 240 747 322 856 q 158 493 158 638 q 185 325 158 404 q 322 123 225 210 q 533 36 419 36 q 757 145 675 36 q 839 399 839 254 q 813 567 839 488 q 676 770 772 685 q 464 856 581 856 m 308 1083 q 327 1122 308 1106 q 367 1138 346 1138 q 438 1096 404 1138 l 567 932 l 508 932 l 356 1013 q 317 1043 326 1028 q 308 1083 308 1058 z "},"Ó":{"ha":997,"x_min":33,"x_max":964,"o":"m 964 446 q 827 117 964 254 q 499 -19 690 -19 q 170 117 307 -19 q 33 446 33 254 q 170 776 33 638 q 499 914 307 914 q 828 776 692 914 q 964 446 964 639 m 464 856 q 240 747 322 856 q 158 493 158 638 q 185 325 158 404 q 322 123 225 210 q 533 36 419 36 q 757 145 675 36 q 839 399 839 254 q 813 567 839 488 q 676 770 772 685 q 464 856 581 856 m 674 1090 q 665 1050 674 1065 q 626 1019 656 1035 l 474 939 l 415 939 l 544 1103 q 615 1144 578 1144 q 655 1128 636 1144 q 674 1090 674 1113 z "},"Ô":{"ha":997,"x_min":33,"x_max":964,"o":"m 964 446 q 827 117 964 254 q 499 -19 690 -19 q 170 117 307 -19 q 33 446 33 254 q 170 776 33 638 q 499 914 307 914 q 828 776 692 914 q 964 446 964 639 m 464 856 q 240 747 322 856 q 158 493 158 638 q 185 325 158 404 q 322 123 225 210 q 533 36 419 36 q 757 145 675 36 q 839 399 839 254 q 813 567 839 488 q 676 770 772 685 q 464 856 581 856 m 672 947 l 656 926 l 499 1007 l 342 926 l 325 949 l 499 1106 l 672 947 z "},"Õ":{"ha":997,"x_min":33,"x_max":964,"o":"m 964 446 q 827 117 964 254 q 499 -19 690 -19 q 170 117 307 -19 q 33 446 33 254 q 170 776 33 638 q 499 914 307 914 q 828 776 692 914 q 964 446 964 639 m 464 856 q 240 747 322 856 q 158 493 158 638 q 185 325 158 404 q 322 123 225 210 q 533 36 419 36 q 757 145 675 36 q 839 399 839 254 q 813 567 839 488 q 676 770 772 685 q 464 856 581 856 m 656 1049 q 560 946 635 946 q 483 963 540 946 q 406 979 426 979 q 371 940 376 979 l 342 947 q 350 979 343 949 q 382 1031 357 1011 q 439 1050 407 1050 q 517 1033 465 1050 q 594 1017 569 1017 q 628 1056 622 1017 l 656 1049 z "},"Ö":{"ha":997,"x_min":33,"x_max":964,"o":"m 964 446 q 827 117 964 254 q 499 -19 690 -19 q 170 117 307 -19 q 33 446 33 254 q 170 776 33 638 q 499 914 307 914 q 828 776 692 914 q 964 446 964 639 m 464 856 q 240 747 322 856 q 158 493 158 638 q 185 325 158 404 q 322 123 225 210 q 533 36 419 36 q 757 145 675 36 q 839 399 839 254 q 813 567 839 488 q 676 770 772 685 q 464 856 581 856 m 402 956 q 395 963 402 956 q 389 988 389 969 q 401 1019 389 1006 q 433 1032 414 1032 q 466 1019 453 1032 q 479 988 479 1007 q 466 956 479 969 q 433 943 453 943 q 402 956 415 943 m 531 956 q 525 963 531 956 q 518 988 518 969 q 531 1019 518 1006 q 563 1032 544 1032 q 594 1019 581 1032 q 607 988 607 1006 q 594 956 607 969 q 563 943 581 943 q 531 956 544 943 z "},"×":{"ha":563,"x_min":33,"x_max":529,"o":"m 476 215 l 281 410 l 86 215 l 33 268 l 228 463 l 33 658 l 86 711 l 281 517 l 476 711 l 529 658 l 335 463 l 529 268 l 476 215 z "},"Ø":{"ha":997,"x_min":33,"x_max":964,"o":"m 964 446 q 827 117 964 254 q 499 -19 690 -19 q 192 97 321 -19 l 75 -19 l 33 22 l 149 139 q 33 446 33 272 q 169 776 33 639 q 499 914 306 914 q 806 796 672 914 l 921 911 l 963 868 l 847 753 q 964 446 964 621 m 763 668 l 269 175 q 533 36 390 36 q 756 146 674 36 q 838 400 838 256 q 763 668 838 553 m 726 717 q 463 856 610 856 q 240 747 322 856 q 158 493 158 638 q 233 224 158 339 l 726 717 z "},"Ù":{"ha":1082,"x_min":33,"x_max":1049,"o":"m 1049 863 l 1028 863 q 969 836 994 863 q 943 778 943 810 l 943 346 q 826 85 943 190 q 540 -19 708 -19 q 253 79 369 -19 q 138 332 138 178 l 138 778 q 112 836 138 810 q 53 863 86 863 l 33 863 l 33 893 l 360 893 l 360 863 l 333 863 q 275 836 300 863 q 250 778 250 810 l 250 378 q 318 132 250 225 q 540 39 386 39 q 831 378 831 39 l 831 778 q 806 836 831 810 q 747 863 781 863 l 719 863 l 719 893 l 1049 893 l 1049 863 m 364 1069 q 383 1108 364 1092 q 422 1124 401 1124 q 493 1082 460 1124 l 622 918 l 564 918 l 411 999 q 373 1029 382 1014 q 364 1069 364 1044 z "},"Ú":{"ha":1082,"x_min":33,"x_max":1049,"o":"m 1049 863 l 1028 863 q 969 836 994 863 q 943 778 943 810 l 943 346 q 826 85 943 190 q 540 -19 708 -19 q 253 79 369 -19 q 138 332 138 178 l 138 778 q 112 836 138 810 q 53 863 86 863 l 33 863 l 33 893 l 360 893 l 360 863 l 333 863 q 275 836 300 863 q 250 778 250 810 l 250 378 q 318 132 250 225 q 540 39 386 39 q 831 378 831 39 l 831 778 q 806 836 831 810 q 747 863 781 863 l 719 863 l 719 893 l 1049 893 l 1049 863 m 713 1069 q 703 1029 713 1044 q 665 999 694 1014 l 513 918 l 454 918 l 583 1082 q 654 1124 617 1124 q 694 1108 675 1124 q 713 1069 713 1092 z "},"Û":{"ha":1082,"x_min":33,"x_max":1049,"o":"m 1049 863 l 1028 863 q 969 836 994 863 q 943 778 943 810 l 943 346 q 826 85 943 190 q 540 -19 708 -19 q 253 79 369 -19 q 138 332 138 178 l 138 778 q 112 836 138 810 q 53 863 86 863 l 33 863 l 33 893 l 360 893 l 360 863 l 333 863 q 275 836 300 863 q 250 778 250 810 l 250 378 q 318 132 250 225 q 540 39 386 39 q 831 378 831 39 l 831 778 q 806 836 831 810 q 747 863 781 863 l 719 863 l 719 893 l 1049 893 l 1049 863 m 714 929 l 697 908 l 540 989 l 383 908 l 367 931 l 540 1088 l 714 929 z "},"Ü":{"ha":1082,"x_min":33,"x_max":1049,"o":"m 1049 863 l 1028 863 q 969 836 994 863 q 943 778 943 810 l 943 346 q 826 85 943 190 q 540 -19 708 -19 q 253 79 369 -19 q 138 332 138 178 l 138 778 q 112 836 138 810 q 53 863 86 863 l 33 863 l 33 893 l 360 893 l 360 863 l 333 863 q 275 836 300 863 q 250 778 250 810 l 250 378 q 318 132 250 225 q 540 39 386 39 q 831 378 831 39 l 831 778 q 806 836 831 810 q 747 863 781 863 l 719 863 l 719 893 l 1049 893 l 1049 863 m 432 964 q 445 996 432 983 q 476 1008 458 1008 q 509 996 496 1008 q 522 964 522 983 q 509 933 522 946 q 476 919 496 919 q 445 933 458 919 q 432 964 432 946 m 561 964 q 574 996 561 983 q 606 1008 586 1008 q 638 996 625 1008 q 650 964 650 983 q 637 933 650 946 q 606 919 624 919 q 574 933 588 919 q 561 964 561 946 z "},"Ý":{"ha":1019,"x_min":33,"x_max":986,"o":"m 986 863 q 815 783 881 863 l 569 488 l 569 135 q 593 59 569 89 q 653 29 617 29 l 674 29 l 674 0 l 351 0 l 351 29 l 372 29 q 431 59 407 29 q 456 135 456 89 l 456 467 l 193 783 q 123 845 156 828 q 33 863 90 863 l 33 893 l 428 893 l 428 863 l 392 863 q 343 836 343 863 q 363 794 343 819 l 558 558 l 736 771 q 756 815 756 793 q 685 863 756 863 l 685 893 l 986 893 l 986 863 m 713 1069 q 703 1029 713 1044 q 665 999 694 1014 l 513 918 l 454 918 l 583 1082 q 654 1124 617 1124 q 694 1108 675 1124 q 713 1069 713 1092 z "},"Þ":{"ha":756,"x_min":33,"x_max":722,"o":"m 722 483 q 628 297 722 369 q 417 224 535 224 q 275 253 347 224 l 275 133 q 299 57 275 85 q 358 29 322 29 l 426 29 l 426 0 l 39 0 l 39 29 l 78 29 q 137 58 113 29 q 161 133 161 86 l 161 783 q 150 828 161 811 q 117 853 139 846 q 78 861 96 860 q 33 863 61 863 l 33 892 l 411 892 l 411 863 q 301 844 326 863 q 275 744 275 825 l 417 744 q 633 676 543 744 q 722 483 722 607 m 544 331 q 569 363 544 331 q 593 478 593 396 q 546 624 593 560 q 419 689 499 689 l 275 689 l 275 307 q 417 265 317 265 q 544 331 496 265 z "},"ß":{"ha":740,"x_min":33,"x_max":707,"o":"m 707 147 q 649 27 707 72 q 515 -18 592 -18 q 413 -4 450 -18 q 385 9 408 -3 q 357 21 363 21 q 346 -3 346 21 l 317 -4 l 317 160 l 346 160 q 389 60 346 100 q 492 21 432 21 q 571 47 536 21 q 606 115 606 72 q 577 170 606 143 q 508 221 549 197 q 426 270 467 244 q 358 329 386 296 q 329 400 329 363 q 342 459 329 433 q 372 505 354 485 q 407 549 389 525 q 438 612 425 572 q 450 706 450 651 q 339 875 450 875 q 290 856 310 875 q 261 804 269 836 q 249 745 253 772 q 246 689 246 718 l 246 0 l 33 0 l 33 29 l 54 29 q 115 55 92 29 q 138 135 138 81 l 138 504 l 36 504 l 36 533 l 138 533 l 138 681 q 191 837 138 769 q 331 904 244 904 q 473 850 417 904 q 529 711 529 796 q 510 626 529 667 q 466 563 490 586 q 422 510 442 539 q 403 458 403 482 q 434 401 403 429 q 510 347 465 372 q 600 293 556 321 q 676 227 644 265 q 707 147 707 189 z "},"à":{"ha":571,"x_min":33,"x_max":538,"o":"m 538 39 q 436 -17 506 -17 q 336 39 369 -17 q 206 -17 289 -17 q 93 13 140 -17 q 46 104 46 42 q 97 203 46 163 q 205 258 147 243 q 321 276 263 274 l 321 332 q 290 433 321 397 q 201 469 260 469 q 113 439 153 469 q 63 361 74 408 l 33 364 q 97 499 33 446 q 243 551 160 551 q 376 500 324 551 q 429 310 429 449 l 429 165 q 442 83 429 111 q 492 56 456 56 q 521 60 504 56 l 538 39 m 321 110 l 321 231 q 213 194 260 222 q 165 113 165 165 q 187 57 165 76 q 244 38 208 38 q 297 60 272 38 q 321 110 321 82 m 81 728 q 99 766 81 750 q 139 782 118 782 q 210 740 176 782 l 339 576 l 281 576 l 128 657 q 90 688 99 672 q 81 728 81 703 z "},"á":{"ha":571,"x_min":33,"x_max":538,"o":"m 538 39 q 436 -17 506 -17 q 336 39 369 -17 q 206 -17 289 -17 q 93 13 140 -17 q 46 104 46 42 q 97 203 46 163 q 205 258 147 243 q 321 276 263 274 l 321 332 q 290 433 321 397 q 201 469 260 469 q 113 439 153 469 q 63 361 74 408 l 33 364 q 97 499 33 446 q 243 551 160 551 q 376 500 324 551 q 429 310 429 449 l 429 165 q 442 83 429 111 q 492 56 456 56 q 521 60 504 56 l 538 39 m 321 110 l 321 231 q 213 194 260 222 q 165 113 165 165 q 187 57 165 76 q 244 38 208 38 q 297 60 272 38 q 321 110 321 82 m 449 733 q 440 693 449 708 q 401 663 431 678 l 249 582 l 190 582 l 319 746 q 390 788 353 788 q 430 772 411 788 q 449 733 449 756 z "},"â":{"ha":571,"x_min":33,"x_max":538,"o":"m 538 39 q 436 -17 506 -17 q 336 39 369 -17 q 206 -17 289 -17 q 93 13 140 -17 q 46 104 46 42 q 97 203 46 163 q 205 258 147 243 q 321 276 263 274 l 321 332 q 290 433 321 397 q 201 469 260 469 q 113 439 153 469 q 63 361 74 408 l 33 364 q 97 499 33 446 q 243 551 160 551 q 376 500 324 551 q 429 310 429 449 l 429 165 q 442 83 429 111 q 492 56 456 56 q 521 60 504 56 l 538 39 m 321 110 l 321 231 q 213 194 260 222 q 165 113 165 165 q 187 57 165 76 q 244 38 208 38 q 297 60 272 38 q 321 110 321 82 m 415 578 l 399 557 l 242 638 l 85 557 l 68 579 l 242 736 l 415 578 z "},"ã":{"ha":571,"x_min":33,"x_max":538,"o":"m 538 39 q 436 -17 506 -17 q 336 39 369 -17 q 206 -17 289 -17 q 93 13 140 -17 q 46 104 46 42 q 97 203 46 163 q 205 258 147 243 q 321 276 263 274 l 321 332 q 290 433 321 397 q 201 469 260 469 q 113 439 153 469 q 63 361 74 408 l 33 364 q 97 499 33 446 q 243 551 160 551 q 376 500 324 551 q 429 310 429 449 l 429 165 q 442 83 429 111 q 492 56 456 56 q 521 60 504 56 l 538 39 m 321 110 l 321 231 q 213 194 260 222 q 165 113 165 165 q 187 57 165 76 q 244 38 208 38 q 297 60 272 38 q 321 110 321 82 m 406 676 q 310 574 385 574 q 233 590 290 574 q 156 607 176 607 q 121 568 126 607 l 92 575 q 100 607 93 576 q 132 658 107 639 q 189 678 157 678 q 267 661 215 678 q 344 644 319 644 q 378 683 372 644 l 406 676 z "},"ä":{"ha":571,"x_min":33,"x_max":538,"o":"m 538 39 q 436 -17 506 -17 q 336 39 369 -17 q 206 -17 289 -17 q 93 13 140 -17 q 46 104 46 42 q 97 203 46 163 q 205 258 147 243 q 321 276 263 274 l 321 332 q 290 433 321 397 q 201 469 260 469 q 113 439 153 469 q 63 361 74 408 l 33 364 q 97 499 33 446 q 243 551 160 551 q 376 500 324 551 q 429 310 429 449 l 429 165 q 442 83 429 111 q 492 56 456 56 q 521 60 504 56 l 538 39 m 321 110 l 321 231 q 213 194 260 222 q 165 113 165 165 q 187 57 165 76 q 244 38 208 38 q 297 60 272 38 q 321 110 321 82 m 129 622 q 142 654 129 642 q 174 667 156 667 q 206 654 193 667 q 219 622 219 642 q 206 591 219 604 q 174 578 193 578 q 142 591 156 578 q 129 622 129 604 m 258 622 q 271 654 258 642 q 303 667 283 667 q 335 654 322 667 q 347 622 347 642 q 334 591 347 604 q 303 578 321 578 q 272 591 285 578 q 258 622 258 604 z "},"å":{"ha":571,"x_min":33,"x_max":538,"o":"m 538 39 q 436 -17 506 -17 q 336 39 369 -17 q 206 -17 289 -17 q 93 13 140 -17 q 46 104 46 42 q 97 203 46 163 q 205 258 147 243 q 321 276 263 274 l 321 332 q 290 433 321 397 q 201 469 260 469 q 113 439 153 469 q 63 361 74 408 l 33 364 q 97 499 33 446 q 243 551 160 551 q 376 500 324 551 q 429 310 429 449 l 429 165 q 442 83 429 111 q 492 56 456 56 q 521 60 504 56 l 538 39 m 321 110 l 321 231 q 213 194 260 222 q 165 113 165 165 q 187 57 165 76 q 244 38 208 38 q 297 60 272 38 q 321 110 321 82 m 324 766 q 341 750 324 766 q 357 689 357 733 q 324 612 357 644 q 247 579 292 579 q 169 611 201 579 q 136 689 136 643 q 169 767 136 735 q 247 799 201 799 q 324 766 292 799 m 299 637 q 309 648 299 637 q 319 689 319 658 q 299 741 319 719 q 247 763 278 763 q 195 741 217 763 q 174 689 174 719 q 195 637 174 658 q 247 615 217 615 q 299 637 278 615 z "},"æ":{"ha":913,"x_min":33,"x_max":879,"o":"m 879 110 q 626 -17 790 -17 q 397 83 483 -17 q 321 11 371 39 q 218 -17 271 -17 q 46 104 46 -17 q 97 201 46 161 q 206 258 149 242 q 322 276 264 274 l 322 290 q 206 469 322 469 q 113 440 153 469 q 63 361 74 411 l 33 364 q 97 499 33 446 q 243 551 160 551 q 406 467 356 551 q 499 528 443 506 q 608 551 554 551 q 778 492 708 551 q 853 333 847 433 l 465 333 q 463 288 463 303 q 514 126 463 199 q 651 54 565 54 q 854 128 769 54 l 879 110 m 322 110 l 322 231 q 214 194 261 222 q 167 113 167 165 q 244 38 167 38 q 297 60 271 38 q 322 110 322 83 m 713 363 q 684 467 713 418 q 606 515 656 515 q 520 467 556 515 q 471 363 485 419 l 713 363 z "},"ç":{"ha":617,"x_min":33,"x_max":583,"o":"m 583 125 q 472 21 543 58 q 321 -17 401 -17 q 117 65 200 -17 q 33 267 33 146 q 117 469 33 388 q 321 551 200 551 q 531 471 439 551 l 531 376 l 476 376 l 469 424 q 322 507 410 507 q 202 438 246 507 q 158 286 158 368 q 222 123 158 192 q 379 54 285 54 q 557 144 485 54 l 583 125 m 381 -142 q 359 -190 381 -169 q 303 -219 338 -210 q 238 -233 269 -229 q 176 -236 207 -236 l 178 -207 q 217 -206 203 -207 q 251 -199 231 -204 q 283 -181 272 -194 q 293 -144 293 -167 q 221 -83 293 -108 l 304 29 l 329 13 l 288 -46 q 353 -81 326 -56 q 381 -142 381 -107 z "},"è":{"ha":607,"x_min":33,"x_max":574,"o":"m 574 110 q 465 17 532 50 q 322 -17 397 -17 q 117 65 201 -17 q 33 267 33 147 q 110 469 33 388 q 307 551 188 551 q 469 494 406 551 q 547 333 533 436 l 160 333 q 157 292 157 306 q 207 126 157 199 q 346 54 257 54 q 547 128 456 54 l 574 110 m 422 363 q 388 472 422 428 q 300 515 354 515 q 212 471 247 515 q 165 363 176 426 l 422 363 m 121 729 q 140 767 121 751 q 179 783 158 783 q 250 742 217 783 l 379 578 l 321 578 l 168 658 q 130 689 139 674 q 121 729 121 704 z "},"é":{"ha":607,"x_min":33,"x_max":574,"o":"m 574 110 q 465 17 532 50 q 322 -17 397 -17 q 117 65 201 -17 q 33 267 33 147 q 110 469 33 388 q 307 551 188 551 q 469 494 406 551 q 547 333 533 436 l 160 333 q 157 292 157 306 q 207 126 157 199 q 346 54 257 54 q 547 128 456 54 l 574 110 m 422 363 q 388 472 422 428 q 300 515 354 515 q 212 471 247 515 q 165 363 176 426 l 422 363 m 478 726 q 469 686 478 701 q 431 656 460 671 l 278 575 l 219 575 l 349 739 q 419 781 382 781 q 459 765 440 781 q 478 726 478 749 z "},"ê":{"ha":607,"x_min":33,"x_max":574,"o":"m 574 110 q 465 17 532 50 q 322 -17 397 -17 q 117 65 201 -17 q 33 267 33 147 q 110 469 33 388 q 307 551 188 551 q 469 494 406 551 q 547 333 533 436 l 160 333 q 157 292 157 306 q 207 126 157 199 q 346 54 257 54 q 547 128 456 54 l 574 110 m 422 363 q 388 472 422 428 q 300 515 354 515 q 212 471 247 515 q 165 363 176 426 l 422 363 m 476 569 l 460 549 l 303 629 l 146 549 l 129 571 l 303 728 l 476 569 z "},"ë":{"ha":607,"x_min":33,"x_max":574,"o":"m 574 110 q 465 17 532 50 q 322 -17 397 -17 q 117 65 201 -17 q 33 267 33 147 q 110 469 33 388 q 307 551 188 551 q 469 494 406 551 q 547 333 533 436 l 160 333 q 157 292 157 306 q 207 126 157 199 q 346 54 257 54 q 547 128 456 54 l 574 110 m 422 363 q 388 472 422 428 q 300 515 354 515 q 212 471 247 515 q 165 363 176 426 l 422 363 m 194 617 q 207 649 194 636 q 239 661 219 661 q 272 649 258 661 q 285 617 285 636 q 272 585 285 599 q 239 572 258 572 q 208 585 221 572 q 194 617 194 599 m 324 617 q 337 649 324 636 q 368 661 350 661 q 399 649 386 661 q 413 617 413 636 q 399 585 413 599 q 368 572 386 572 q 337 585 350 572 q 324 617 324 599 z "},"ì":{"ha":383,"x_min":15,"x_max":350,"o":"m 350 0 l 35 0 l 33 29 l 54 29 q 113 65 88 29 q 138 135 138 100 l 138 425 q 38 504 138 504 l 38 533 l 246 533 l 246 135 q 272 65 246 101 q 329 29 297 29 l 350 29 l 350 0 m 15 710 q 34 748 15 732 q 74 764 53 764 q 144 722 111 764 l 274 558 l 215 558 l 63 639 q 24 669 33 654 q 15 710 15 685 z "},"í":{"ha":383,"x_min":33,"x_max":374,"o":"m 350 0 l 35 0 l 33 29 l 54 29 q 113 65 88 29 q 138 135 138 100 l 138 425 q 38 504 138 504 l 38 533 l 246 533 l 246 135 q 272 65 246 101 q 329 29 297 29 l 350 29 l 350 0 m 374 710 q 365 669 374 685 q 326 639 356 654 l 174 558 l 115 558 l 244 722 q 315 764 278 764 q 355 748 336 764 q 374 710 374 732 z "},"î":{"ha":383,"x_min":18,"x_max":365,"o":"m 350 0 l 35 0 l 33 29 l 54 29 q 113 65 88 29 q 138 135 138 100 l 138 425 q 38 504 138 504 l 38 533 l 246 533 l 246 135 q 272 65 246 101 q 329 29 297 29 l 350 29 l 350 0 m 365 569 l 349 549 l 192 629 l 35 549 l 18 571 l 192 728 l 365 569 z "},"ï":{"ha":383,"x_min":33,"x_max":350,"o":"m 350 0 l 35 0 l 33 29 l 54 29 q 113 65 88 29 q 138 135 138 100 l 138 425 q 38 504 138 504 l 38 533 l 246 533 l 246 135 q 272 65 246 101 q 329 29 297 29 l 350 29 l 350 0 m 78 573 q 72 580 78 573 q 65 604 65 586 q 78 635 65 622 q 110 649 92 649 q 142 636 129 649 q 156 604 156 624 q 142 573 156 586 q 110 560 129 560 q 78 573 92 560 m 208 573 q 201 580 208 573 q 194 604 194 586 q 207 635 194 622 q 239 649 219 649 q 271 635 258 649 q 283 604 283 622 q 270 573 283 586 q 239 560 257 560 q 208 573 221 560 z "},"ð":{"ha":679,"x_min":33,"x_max":646,"o":"m 646 324 q 569 74 646 165 q 338 -17 493 -17 q 124 65 215 -17 q 33 267 33 146 q 124 471 33 390 q 340 551 215 551 q 501 511 425 551 q 378 749 474 647 l 286 707 l 271 740 l 353 776 q 235 846 299 846 q 182 825 214 846 l 165 850 q 282 886 224 886 q 449 819 368 886 l 531 857 l 544 824 l 478 793 q 481 790 481 793 q 605 581 564 707 q 646 324 646 456 m 513 469 q 369 503 446 503 q 217 449 278 503 q 156 306 156 396 q 215 126 156 211 q 365 40 275 40 q 524 313 524 40 q 513 469 524 418 z "},"ñ":{"ha":775,"x_min":33,"x_max":742,"o":"m 742 0 l 425 0 l 425 29 l 446 29 q 506 58 482 29 q 529 135 529 88 l 529 300 q 488 404 529 360 q 388 449 447 449 q 287 408 329 449 q 244 310 244 368 l 244 135 q 269 58 244 88 q 328 29 293 29 l 349 29 l 349 0 l 33 0 l 33 29 l 53 29 q 113 58 89 29 q 138 135 138 88 l 138 425 q 38 504 138 504 l 38 533 l 244 533 l 244 426 q 322 504 272 475 q 426 533 371 533 q 576 466 514 533 q 638 308 638 399 l 638 135 q 661 58 638 88 q 721 29 685 29 l 742 29 l 742 0 m 535 674 q 439 571 514 571 q 363 588 419 571 q 285 604 306 604 q 250 565 256 604 l 221 572 q 229 604 222 574 q 261 656 236 636 q 318 675 286 675 q 397 658 344 675 q 474 642 449 642 q 507 681 501 642 l 535 674 z "},"ò":{"ha":676,"x_min":33,"x_max":643,"o":"m 552 470 q 598 430 552 470 q 643 267 643 389 q 552 64 643 144 q 338 -17 461 -17 q 124 65 215 -17 q 33 267 33 146 q 124 469 33 388 q 338 551 215 551 q 552 470 461 551 m 314 492 q 197 442 238 492 q 156 306 156 392 q 217 123 156 206 q 374 40 278 40 q 483 94 447 40 q 519 229 519 147 q 465 414 519 336 q 314 492 410 492 m 146 728 q 165 766 146 750 q 204 782 183 782 q 275 740 242 782 l 404 576 l 346 576 l 193 657 q 155 688 164 672 q 146 728 146 703 z "},"ó":{"ha":676,"x_min":33,"x_max":643,"o":"m 552 470 q 598 430 552 470 q 643 267 643 389 q 552 64 643 144 q 338 -17 461 -17 q 124 65 215 -17 q 33 267 33 146 q 124 469 33 388 q 338 551 215 551 q 552 470 461 551 m 314 492 q 197 442 238 492 q 156 306 156 392 q 217 123 156 206 q 374 40 278 40 q 483 94 447 40 q 519 229 519 147 q 465 414 519 336 q 314 492 410 492 m 497 733 q 488 693 497 708 q 450 663 479 678 l 297 582 l 239 582 l 368 746 q 439 788 401 788 q 478 772 460 788 q 497 733 497 756 z "},"ô":{"ha":676,"x_min":33,"x_max":643,"o":"m 552 470 q 598 430 552 470 q 643 267 643 389 q 552 64 643 144 q 338 -17 461 -17 q 124 65 215 -17 q 33 267 33 146 q 124 469 33 388 q 338 551 215 551 q 552 470 461 551 m 314 492 q 197 442 238 492 q 156 306 156 392 q 217 123 156 206 q 374 40 278 40 q 483 94 447 40 q 519 229 519 147 q 465 414 519 336 q 314 492 410 492 m 511 569 l 494 549 l 338 629 l 181 549 l 164 571 l 338 728 l 511 569 z "},"õ":{"ha":676,"x_min":33,"x_max":643,"o":"m 552 470 q 598 430 552 470 q 643 267 643 389 q 552 64 643 144 q 338 -17 461 -17 q 124 65 215 -17 q 33 267 33 146 q 124 469 33 388 q 338 551 215 551 q 552 470 461 551 m 314 492 q 197 442 238 492 q 156 306 156 392 q 217 123 156 206 q 374 40 278 40 q 483 94 447 40 q 519 229 519 147 q 465 414 519 336 q 314 492 410 492 m 493 679 q 397 576 472 576 q 321 593 378 576 q 243 610 264 610 q 208 571 214 610 l 179 578 q 188 610 181 579 q 219 661 194 642 q 276 681 244 681 q 355 664 303 681 q 432 647 407 647 q 465 686 460 647 l 493 679 z "},"ö":{"ha":676,"x_min":33,"x_max":643,"o":"m 552 470 q 598 430 552 470 q 643 267 643 389 q 552 64 643 144 q 338 -17 461 -17 q 124 65 215 -17 q 33 267 33 146 q 124 469 33 388 q 338 551 215 551 q 552 470 461 551 m 314 492 q 197 442 238 492 q 156 306 156 392 q 217 123 156 206 q 374 40 278 40 q 483 94 447 40 q 519 229 519 147 q 465 414 519 336 q 314 492 410 492 m 217 625 q 229 657 217 644 q 261 669 242 669 q 294 657 281 669 q 307 625 307 644 q 294 594 307 607 q 261 581 281 581 q 230 594 243 581 q 217 625 217 607 m 346 625 q 359 657 346 644 q 390 669 372 669 q 422 657 408 669 q 435 625 435 644 q 422 594 435 607 q 390 581 408 581 q 359 594 372 581 q 346 625 346 607 z "},"÷":{"ha":693,"x_min":33,"x_max":660,"o":"m 399 352 q 409 341 399 352 q 419 300 419 331 q 399 249 419 269 q 346 228 378 228 q 294 249 315 228 q 274 300 274 269 q 294 352 274 331 q 346 374 315 374 q 399 352 378 374 m 399 685 q 409 675 399 685 q 419 633 419 664 q 399 581 419 603 q 346 560 378 560 q 294 581 315 560 q 274 633 274 603 q 294 685 274 664 q 346 707 315 707 q 399 685 378 707 m 660 425 l 33 425 l 33 501 l 660 501 l 660 425 z "},"ø":{"ha":688,"x_min":33,"x_max":654,"o":"m 654 267 q 564 64 654 144 q 350 -17 474 -17 q 160 44 239 -17 l 76 -39 l 33 3 l 115 85 q 44 267 44 164 q 136 469 44 388 q 350 551 228 551 q 528 497 446 551 l 603 571 l 644 529 l 575 458 q 654 267 654 379 m 493 376 l 233 118 q 378 40 296 40 q 491 96 450 40 q 532 226 532 151 q 493 376 532 322 m 457 425 q 322 492 400 492 q 207 434 246 492 q 168 297 168 376 q 200 169 168 236 l 457 425 z "},"ù":{"ha":774,"x_min":33,"x_max":740,"o":"m 740 0 l 531 0 l 531 86 q 346 -18 469 -18 q 197 49 256 -18 q 139 206 139 115 l 139 369 q 116 474 139 443 q 33 504 93 504 l 33 533 l 246 533 l 246 213 q 282 107 246 149 q 389 65 318 65 q 488 107 444 65 q 531 204 531 149 l 531 399 q 506 475 531 446 q 447 504 482 504 l 426 504 l 426 533 l 639 533 l 639 108 q 662 51 639 75 q 718 28 685 28 q 728 28 722 28 q 738 29 733 29 l 740 0 m 204 710 q 223 748 204 732 q 263 764 242 764 q 333 722 300 764 l 463 558 l 404 558 l 251 639 q 213 669 222 654 q 204 710 204 685 z "},"ú":{"ha":774,"x_min":33,"x_max":740,"o":"m 740 0 l 531 0 l 531 86 q 346 -18 469 -18 q 197 49 256 -18 q 139 206 139 115 l 139 369 q 116 474 139 443 q 33 504 93 504 l 33 533 l 246 533 l 246 213 q 282 107 246 149 q 389 65 318 65 q 488 107 444 65 q 531 204 531 149 l 531 399 q 506 475 531 446 q 447 504 482 504 l 426 504 l 426 533 l 639 533 l 639 108 q 662 51 639 75 q 718 28 685 28 q 728 28 722 28 q 738 29 733 29 l 740 0 m 538 710 q 528 669 538 685 q 490 639 519 654 l 338 558 l 279 558 l 408 722 q 479 764 442 764 q 519 748 500 764 q 538 710 538 732 z "},"û":{"ha":774,"x_min":33,"x_max":740,"o":"m 740 0 l 531 0 l 531 86 q 346 -18 469 -18 q 197 49 256 -18 q 139 206 139 115 l 139 369 q 116 474 139 443 q 33 504 93 504 l 33 533 l 246 533 l 246 213 q 282 107 246 149 q 389 65 318 65 q 488 107 444 65 q 531 204 531 149 l 531 399 q 506 475 531 446 q 447 504 482 504 l 426 504 l 426 533 l 639 533 l 639 108 q 662 51 639 75 q 718 28 685 28 q 728 28 722 28 q 738 29 733 29 l 740 0 m 532 575 l 515 554 l 358 635 l 201 554 l 185 576 l 358 733 l 532 575 z "},"ü":{"ha":774,"x_min":33,"x_max":740,"o":"m 740 0 l 531 0 l 531 86 q 346 -18 469 -18 q 197 49 256 -18 q 139 206 139 115 l 139 369 q 116 474 139 443 q 33 504 93 504 l 33 533 l 246 533 l 246 213 q 282 107 246 149 q 389 65 318 65 q 488 107 444 65 q 531 204 531 149 l 531 399 q 506 475 531 446 q 447 504 482 504 l 426 504 l 426 533 l 639 533 l 639 108 q 662 51 639 75 q 718 28 685 28 q 728 28 722 28 q 738 29 733 29 l 740 0 m 232 611 q 245 643 232 631 q 276 656 258 656 q 309 643 296 656 q 322 611 322 631 q 309 580 322 593 q 276 567 296 567 q 245 580 258 567 q 232 611 232 593 m 361 611 q 374 643 361 631 q 406 656 386 656 q 438 643 425 656 q 450 611 450 631 q 437 580 450 593 q 406 567 424 567 q 374 580 388 567 q 361 611 361 593 z "},"ý":{"ha":701,"x_min":33,"x_max":668,"o":"m 668 504 q 586 484 617 504 q 536 411 556 464 l 347 -93 q 240 -274 304 -204 q 71 -382 176 -344 l 71 -264 q 306 -82 257 -208 l 329 -19 l 164 410 q 117 483 144 463 q 33 504 90 504 l 33 533 l 329 533 l 329 504 q 290 490 306 504 q 275 457 275 476 q 278 442 275 453 l 389 138 l 472 365 q 494 446 494 429 q 435 504 494 504 l 435 533 l 668 533 l 668 504 m 551 710 q 542 669 551 685 q 504 639 533 654 l 351 558 l 293 558 l 422 722 q 493 764 456 764 q 533 748 514 764 q 551 710 551 732 z "},"þ":{"ha":726,"x_min":33,"x_max":693,"o":"m 616 463 q 655 420 616 463 q 693 263 693 378 q 616 63 693 147 q 425 -22 539 -22 q 247 49 325 -22 l 247 -247 q 285 -328 247 -290 q 351 -351 308 -350 l 351 -381 q 35 -379 246 -379 l 35 -351 l 56 -351 q 113 -316 88 -351 q 139 -246 139 -281 l 139 753 q 109 811 139 793 q 38 829 79 829 l 33 858 l 247 889 l 247 475 q 425 547 326 547 q 616 463 539 547 m 528 118 q 555 152 528 118 q 582 272 582 186 q 528 426 582 358 q 390 494 475 494 q 247 419 304 494 l 247 125 q 390 50 304 50 q 528 118 475 50 z "},"ÿ":{"ha":701,"x_min":33,"x_max":668,"o":"m 668 504 q 586 484 617 504 q 536 411 556 464 l 347 -93 q 240 -274 304 -204 q 71 -382 176 -344 l 71 -264 q 306 -82 257 -208 l 329 -19 l 164 410 q 117 483 144 463 q 33 504 90 504 l 33 533 l 329 533 l 329 504 q 290 490 306 504 q 275 457 275 476 q 278 442 275 453 l 389 138 l 472 365 q 494 446 494 429 q 435 504 494 504 l 435 533 l 668 533 l 668 504 m 283 576 q 276 582 283 576 q 269 607 269 589 q 282 638 269 625 q 314 651 294 651 q 347 639 333 651 q 360 607 360 626 q 347 576 360 589 q 314 563 333 563 q 283 576 296 563 m 412 576 q 405 582 412 576 q 399 607 399 589 q 412 638 399 625 q 443 651 425 651 q 474 638 461 651 q 488 607 488 625 q 474 576 488 589 q 443 563 461 563 q 412 576 425 563 z "},"ı":{"ha":383,"x_min":33,"x_max":350,"o":"m 350 0 l 35 0 l 33 29 l 54 29 q 113 65 88 29 q 138 135 138 100 l 138 425 q 38 504 138 504 l 38 533 l 246 533 l 246 135 q 272 65 246 101 q 329 29 297 29 l 350 29 l 350 0 z "},"Œ":{"ha":1246,"x_min":33,"x_max":1213,"o":"m 1213 186 l 1167 0 l 638 0 q 569 -10 615 0 q 499 -19 524 -19 q 169 117 306 -19 q 33 446 33 253 q 169 776 33 639 q 499 914 306 914 q 638 892 589 914 l 1154 892 l 1154 736 l 1125 736 q 1097 804 1125 776 q 1028 832 1068 832 l 757 832 l 757 486 l 996 486 q 1064 514 1036 486 q 1092 582 1092 542 l 1122 582 l 1122 329 l 1092 329 q 1064 397 1092 369 q 996 425 1036 425 l 757 425 l 757 164 q 782 94 757 129 q 839 60 807 60 q 932 59 869 60 q 1026 58 994 58 q 1124 98 1081 58 q 1185 193 1167 138 l 1213 186 m 643 133 l 643 796 q 461 854 556 854 q 240 746 321 854 q 158 493 158 638 q 185 325 158 382 q 318 123 222 213 q 525 33 414 33 q 613 55 583 33 q 643 133 643 76 z "},"œ":{"ha":1061,"x_min":33,"x_max":1028,"o":"m 1028 110 q 769 -17 943 -17 q 558 71 646 -17 q 336 -17 471 -17 q 124 65 214 -17 q 33 267 33 146 q 122 467 33 382 q 326 551 210 551 q 554 467 468 551 q 763 551 639 551 q 929 490 858 551 q 1001 333 1000 429 l 615 333 l 611 283 q 663 125 611 196 q 800 54 715 54 q 1003 128 913 54 l 1028 110 m 504 144 q 475 261 475 203 q 490 360 475 315 q 415 453 464 415 q 310 492 365 492 q 195 435 236 492 q 154 301 154 378 q 216 124 154 208 q 368 40 278 40 q 449 70 413 40 q 504 144 486 100 m 861 363 q 832 468 858 421 q 754 515 806 515 q 669 468 704 515 q 619 363 635 421 l 861 363 z "},"Š":{"ha":619,"x_min":33,"x_max":586,"o":"m 586 232 q 501 50 586 121 q 303 -21 415 -21 q 198 1 257 -21 q 131 24 139 24 q 88 -10 100 24 l 58 -11 l 58 201 l 88 201 q 156 77 93 124 q 301 31 219 31 q 436 72 375 31 q 497 183 497 114 q 449 292 497 246 q 333 369 401 339 q 197 432 265 399 q 81 522 129 465 q 33 656 33 578 q 112 832 33 760 q 294 904 190 904 q 376 895 332 904 q 442 886 421 886 q 490 910 490 886 l 490 918 l 519 918 l 519 704 l 492 704 q 428 813 481 768 q 313 858 376 858 q 186 815 240 858 q 132 700 132 771 q 165 608 132 647 q 249 545 199 568 q 359 494 300 522 q 469 436 418 465 q 553 354 519 407 q 586 232 586 301 m 144 1074 l 193 1074 l 310 979 l 425 1074 l 474 1074 l 346 914 l 272 914 l 144 1074 z "},"š":{"ha":457,"x_min":33,"x_max":424,"o":"m 424 146 q 365 27 424 72 q 232 -18 307 -18 q 128 -1 171 -18 q 82 15 86 15 q 69 9 76 15 q 63 -7 63 3 l 33 -7 l 33 160 l 63 160 q 104 58 63 94 q 213 21 146 21 q 291 47 260 21 q 322 115 322 72 q 277 181 322 151 q 178 231 232 211 q 80 294 125 251 q 35 396 35 338 q 91 508 35 465 q 219 550 147 550 q 296 537 254 550 q 347 524 338 524 q 365 540 365 524 l 394 540 l 394 415 l 365 415 q 328 483 365 458 q 233 508 292 508 q 157 484 186 508 q 128 419 128 460 q 158 367 128 390 q 232 326 189 344 q 319 285 275 307 q 393 228 363 264 q 424 146 424 193 m 63 728 l 111 728 l 228 633 l 343 728 l 392 728 l 264 568 l 190 568 l 63 728 z "},"Ÿ":{"ha":1019,"x_min":33,"x_max":986,"o":"m 986 863 q 815 783 881 863 l 569 488 l 569 135 q 593 59 569 89 q 653 29 617 29 l 674 29 l 674 0 l 351 0 l 351 29 l 372 29 q 431 59 407 29 q 456 135 456 89 l 456 467 l 193 783 q 123 845 156 828 q 33 863 90 863 l 33 893 l 428 893 l 428 863 l 392 863 q 343 836 343 863 q 363 794 343 819 l 558 558 l 736 771 q 756 815 756 793 q 685 863 756 863 l 685 893 l 986 893 l 986 863 m 436 964 q 449 996 436 983 q 481 1008 461 1008 q 513 996 500 1008 q 526 964 526 983 q 513 933 526 946 q 481 919 500 919 q 449 933 463 919 q 436 964 436 946 m 565 964 q 578 996 565 983 q 610 1008 592 1008 q 641 996 628 1008 q 654 964 654 983 q 641 933 654 946 q 610 919 628 919 q 578 933 592 919 q 565 964 565 946 z "},"Ž":{"ha":836,"x_min":33,"x_max":803,"o":"m 803 893 l 222 46 l 524 46 q 660 89 596 46 q 724 201 724 132 l 724 249 l 772 249 l 772 0 l 33 0 l 614 847 l 272 847 q 162 799 213 847 q 111 692 111 751 l 111 660 l 64 660 l 64 893 l 803 893 m 253 1074 l 301 1074 l 418 979 l 533 1074 l 582 1074 l 454 914 l 381 914 l 253 1074 z "},"ž":{"ha":601,"x_min":33,"x_max":568,"o":"m 568 0 l 35 0 l 401 496 l 225 496 q 121 461 165 496 q 76 365 76 426 l 33 365 l 33 533 l 567 533 l 200 38 l 354 38 q 475 67 424 38 q 526 146 526 97 l 526 186 l 568 186 l 568 0 m 136 714 l 185 714 l 301 619 l 417 714 l 465 714 l 338 554 l 264 554 l 136 714 z "},"ƒ":{"ha":972,"x_min":33,"x_max":939,"o":"m 528 497 l 551 497 l 551 481 q 560 481 554 481 q 569 482 565 482 q 646 436 640 482 q 706 446 667 446 q 774 426 746 446 q 801 371 801 407 q 790 338 801 357 q 781 331 786 331 q 768 343 768 331 q 771 350 768 344 q 779 371 779 358 q 760 408 779 393 q 717 422 742 422 q 632 398 665 422 q 599 347 599 374 q 646 313 599 313 q 681 318 658 313 l 685 319 q 697 307 697 319 q 658 242 693 269 q 579 215 619 215 q 485 256 521 215 q 393 215 451 215 q 314 242 347 215 q 275 307 279 268 q 285 319 275 319 q 290 318 289 319 q 325 313 313 313 q 376 347 376 313 q 341 397 376 372 q 253 422 306 422 q 210 408 228 422 q 193 371 193 393 q 200 350 193 360 q 204 343 204 346 q 190 331 204 331 q 182 338 185 331 q 171 371 171 350 q 199 426 171 407 q 267 446 226 446 q 325 436 304 446 q 352 470 329 458 q 400 482 375 482 q 411 481 404 482 q 421 481 418 481 l 421 501 q 426 551 421 535 q 440 572 431 572 q 453 551 449 572 q 460 522 458 535 l 436 497 l 460 497 q 457 465 460 475 q 476 429 476 453 q 443 385 476 401 q 408 356 408 371 q 433 326 408 336 q 485 317 458 317 q 538 326 514 317 q 563 356 563 336 q 528 385 563 374 q 494 429 494 401 q 515 465 494 453 q 513 501 513 475 q 518 551 513 535 q 532 572 524 572 q 544 551 540 572 q 551 522 550 536 l 528 497 m 615 456 q 571 468 599 468 q 526 456 543 468 q 510 429 510 442 q 526 406 510 415 q 571 393 540 393 q 615 406 601 393 q 632 429 632 415 q 615 456 632 442 m 400 468 q 357 456 372 468 q 340 429 340 442 q 357 406 340 415 q 400 393 369 393 q 444 406 432 393 q 461 429 461 414 q 444 456 461 443 q 400 468 431 468 m 565 318 q 485 294 539 294 q 407 318 432 294 q 325 290 374 290 q 301 292 310 290 q 338 252 313 267 q 393 238 364 238 q 476 282 451 238 q 485 288 479 288 q 496 282 490 288 q 579 238 521 238 q 633 252 607 238 q 669 292 658 267 q 646 290 661 290 q 565 318 599 290 m 397 640 q 257 514 257 608 q 258 499 257 510 q 258 481 258 488 q 247 468 258 468 q 238 478 238 468 q 233 514 233 497 q 290 654 233 594 q 232 735 240 685 q 242 746 232 746 q 253 736 253 746 q 294 680 261 701 q 364 658 326 658 q 430 677 400 658 q 469 731 460 696 q 481 736 474 736 q 493 731 492 736 q 535 678 504 697 q 600 658 565 658 q 669 680 638 658 q 710 736 701 701 q 719 746 711 746 q 732 732 732 746 q 678 658 722 688 q 736 514 736 597 q 735 478 736 490 q 724 468 731 468 q 713 482 713 468 q 714 499 713 488 q 715 514 715 510 q 593 636 715 614 q 481 699 511 653 q 397 640 454 654 m 836 131 q 686 67 772 67 q 588 43 643 43 l 574 43 q 485 21 535 21 q 397 43 438 21 l 383 43 q 285 67 331 43 q 136 131 197 67 q 33 297 33 203 q 97 431 33 369 q 68 546 68 489 q 192 764 68 672 q 485 854 315 854 q 779 764 656 854 q 904 546 904 671 q 875 431 904 494 q 939 297 939 369 q 836 131 939 204 m 724 93 q 819 147 781 106 q 857 246 857 189 q 828 331 857 293 q 825 339 825 336 q 836 350 825 350 q 846 346 842 350 q 879 246 879 303 q 872 194 879 219 q 914 297 914 243 q 853 421 914 363 q 847 429 847 424 l 850 435 q 881 546 881 486 q 765 747 881 663 q 485 832 649 832 q 206 746 321 832 q 90 546 90 663 q 122 435 90 488 q 124 429 124 433 q 119 421 124 422 q 57 297 57 361 q 99 194 57 240 q 92 246 92 219 q 125 346 92 299 q 136 350 129 350 q 147 339 147 350 q 144 331 147 336 q 115 246 115 294 q 153 147 115 189 q 247 93 190 106 q 190 219 190 147 q 229 324 190 281 q 238 329 232 329 q 250 318 250 329 q 247 311 250 314 q 214 219 214 272 q 256 117 214 160 q 358 67 299 74 q 292 199 292 115 q 301 211 292 211 q 315 199 315 211 q 367 88 315 132 q 485 43 418 43 q 605 88 553 43 q 657 199 657 132 q 669 211 657 211 q 681 199 681 211 q 614 67 681 119 q 716 117 674 74 q 758 219 758 160 q 725 311 758 269 q 722 318 722 314 q 733 329 722 329 q 743 324 740 329 q 781 219 781 279 q 724 93 781 146 z "},"ˆ":{"ha":414,"x_min":33,"x_max":381,"o":"m 381 569 l 364 549 l 207 629 l 50 549 l 33 571 l 207 728 l 381 569 z "},"ˇ":{"ha":414,"x_min":42,"x_max":371,"o":"m 42 714 l 90 714 l 207 619 l 322 714 l 371 714 l 243 554 l 169 554 l 42 714 z "},"˚":{"ha":288,"x_min":33,"x_max":254,"o":"m 222 742 q 238 726 222 742 q 254 665 254 710 q 222 588 254 621 q 144 556 189 556 q 66 588 99 556 q 33 665 33 619 q 66 743 33 711 q 144 775 99 775 q 222 742 189 775 m 196 613 q 206 624 196 613 q 217 665 217 635 q 196 717 217 696 q 144 739 175 739 q 92 717 114 739 q 71 665 71 696 q 92 613 71 635 q 144 592 114 592 q 196 613 175 592 z "},"˜":{"ha":381,"x_min":33,"x_max":347,"o":"m 347 661 q 251 558 326 558 q 175 575 232 558 q 97 592 118 592 q 63 553 68 592 l 33 560 q 42 592 35 561 q 74 643 49 624 q 131 663 99 663 q 209 646 157 663 q 286 629 261 629 q 319 668 314 629 l 347 661 z "},"–":{"ha":693,"x_min":33,"x_max":660,"o":"m 660 425 l 33 425 l 33 501 l 660 501 l 660 425 z "},"—":{"ha":1374,"x_min":33,"x_max":1340,"o":"m 1340 425 l 33 425 l 33 501 l 1340 501 l 1340 425 z "},"‘":{"ha":239,"x_min":33,"x_max":206,"o":"m 126 581 q 33 714 33 581 q 79 829 33 781 q 203 890 125 878 l 206 856 q 133 756 133 818 q 136 724 133 735 q 179 701 161 721 q 197 653 197 681 q 177 603 197 625 q 126 581 157 581 z "},"’":{"ha":239,"x_min":33,"x_max":206,"o":"m 113 890 q 206 757 206 890 q 160 642 206 690 q 36 581 114 593 l 33 615 q 106 715 106 653 q 103 747 106 736 q 60 770 78 750 q 42 818 42 790 q 62 868 42 846 q 113 890 82 890 z "},"‚":{"ha":239,"x_min":33,"x_max":206,"o":"m 113 143 q 206 10 206 143 q 160 -106 206 -57 q 36 -167 114 -154 l 33 -132 q 106 -32 106 -94 q 103 0 106 -11 q 60 23 78 3 q 42 71 42 43 q 62 121 42 99 q 113 143 82 143 z "},"“":{"ha":447,"x_min":33,"x_max":414,"o":"m 335 585 q 242 718 242 585 q 288 833 242 785 q 411 894 333 882 l 414 860 q 342 760 342 822 q 344 728 342 739 q 388 705 369 725 q 406 657 406 685 q 385 607 406 629 q 335 585 365 585 m 126 585 q 33 718 33 585 q 79 833 33 785 q 203 894 125 882 l 206 860 q 133 760 133 822 q 136 728 133 739 q 179 705 161 725 q 197 657 197 685 q 177 607 197 629 q 126 585 157 585 z "},"”":{"ha":447,"x_min":33,"x_max":414,"o":"m 113 894 q 206 761 206 894 q 160 646 206 694 q 36 585 114 597 l 33 619 q 106 719 106 657 q 103 751 106 740 q 60 774 78 754 q 42 822 42 794 q 62 872 42 850 q 113 894 82 894 m 321 894 q 414 761 414 894 q 368 646 414 694 q 244 585 322 597 l 242 619 q 314 719 314 657 q 311 751 314 740 q 268 774 286 754 q 250 822 250 794 q 270 872 250 850 q 321 894 290 894 z "},"„":{"ha":447,"x_min":33,"x_max":414,"o":"m 113 143 q 206 10 206 143 q 160 -106 206 -57 q 36 -167 114 -154 l 33 -132 q 106 -32 106 -94 q 103 0 106 -11 q 60 23 78 3 q 42 71 42 43 q 62 121 42 99 q 113 143 82 143 m 321 143 q 414 10 414 143 q 368 -106 414 -57 q 244 -167 322 -154 l 242 -132 q 314 -32 314 -94 q 311 0 314 -11 q 268 23 286 3 q 250 71 250 43 q 270 121 250 99 q 321 143 290 143 z "},"†":{"ha":839,"x_min":33,"x_max":806,"o":"m 542 -144 q 419 -211 467 -160 q 297 -144 372 -160 q 396 451 393 158 q 163 344 261 439 q 33 475 122 433 q 163 606 122 517 q 396 497 261 510 q 279 763 386 647 q 419 901 374 803 q 560 763 465 803 q 443 497 454 650 q 676 606 578 510 q 806 475 717 517 q 676 344 717 433 q 443 451 578 439 q 542 -144 446 158 z "},"‡":{"ha":803,"x_min":33,"x_max":769,"o":"m 518 321 q 451 251 471 281 q 422 168 432 222 q 646 268 551 178 q 769 146 688 183 q 646 24 685 107 q 424 125 554 113 q 536 -124 433 -19 q 401 -256 444 -164 q 267 -124 361 -165 q 379 125 369 -19 q 157 24 247 113 q 33 146 117 108 q 157 268 114 183 q 379 168 251 179 q 351 251 371 221 q 285 321 332 281 q 351 391 332 361 q 379 474 371 421 q 157 374 251 463 q 33 496 114 458 q 157 618 117 533 q 379 517 247 529 q 267 765 369 661 q 401 897 361 807 q 536 765 444 806 q 424 517 433 661 q 646 618 554 529 q 769 496 685 535 q 646 374 688 458 q 422 474 551 464 q 451 390 432 419 q 518 321 471 361 z "},"•":{"ha":328,"x_min":33,"x_max":294,"o":"m 256 535 q 275 515 256 535 q 294 443 294 496 q 256 351 294 390 q 164 313 217 313 q 72 351 111 313 q 33 443 33 390 q 72 535 33 496 q 164 574 111 574 q 256 535 217 574 z "},"…":{"ha":629,"x_min":33,"x_max":596,"o":"m 179 54 q 158 3 179 24 q 106 -18 138 -18 q 54 3 75 -18 q 33 54 33 24 q 54 106 33 85 q 106 128 75 128 q 158 107 136 128 q 179 54 179 86 m 388 54 q 367 3 388 24 q 314 -18 346 -18 q 263 3 283 -18 q 242 54 242 24 q 263 106 242 85 q 314 128 283 128 q 366 107 344 128 q 388 54 388 86 m 596 54 q 575 3 596 24 q 522 -18 554 -18 q 471 3 492 -18 q 450 54 450 24 q 471 106 450 85 q 522 128 492 128 q 574 107 553 128 q 596 54 596 86 z "},"‰":{"ha":1064,"x_min":33,"x_max":1031,"o":"m 551 861 l 593 861 l 139 0 l 33 0 l 469 718 q 415 706 444 706 q 371 715 392 706 l 371 704 q 313 533 371 614 q 172 453 256 453 q 75 499 115 453 q 35 622 35 546 q 94 795 35 714 q 233 876 153 876 q 311 849 276 876 q 363 771 346 821 q 414 744 371 744 q 475 764 447 744 q 515 801 503 783 q 546 851 528 818 q 551 861 550 858 m 285 774 q 254 828 285 828 q 193 775 225 828 q 149 685 161 722 q 122 551 122 611 q 153 499 122 499 q 198 531 174 499 q 235 593 222 564 q 257 644 249 622 q 285 774 285 722 m 611 546 q 704 383 704 511 q 649 216 704 301 q 507 131 594 131 q 403 182 438 131 q 368 301 368 233 q 423 469 368 383 q 567 554 478 554 q 611 546 589 554 m 486 176 q 531 210 506 176 q 569 272 556 243 q 590 322 582 300 q 618 453 618 389 q 586 506 618 506 q 526 453 557 506 q 481 361 494 401 q 454 231 454 282 q 486 176 454 176 m 938 415 q 1031 253 1031 381 q 976 85 1031 171 q 833 0 921 0 q 729 51 764 0 q 694 171 694 103 q 749 338 694 253 q 893 424 804 424 q 938 415 914 424 m 813 46 q 857 79 832 46 q 895 141 882 113 q 917 192 908 169 q 944 322 944 258 q 913 375 944 375 q 852 323 883 375 q 807 231 821 271 q 781 100 781 151 q 813 46 781 46 z "},"‹":{"ha":246,"x_min":33,"x_max":213,"o":"m 213 263 l 192 246 l 33 419 l 190 593 l 213 576 l 132 419 l 213 263 z "},"›":{"ha":246,"x_min":33,"x_max":213,"o":"m 33 263 l 114 419 l 33 576 l 56 593 l 213 419 l 54 246 l 33 263 z "},"€":{"ha":972,"x_min":33,"x_max":939,"o":"m 939 -15 l 910 -18 q 864 18 900 18 q 806 1 856 18 q 744 -18 756 -15 q 643 -28 697 -28 q 319 82 461 -28 q 149 368 176 192 l 33 368 l 82 426 l 143 426 q 144 467 143 453 l 39 467 l 89 525 l 151 525 q 325 799 188 696 q 639 901 463 901 q 736 892 681 901 q 788 878 749 890 q 846 867 826 867 q 896 896 888 867 l 924 892 l 924 663 l 896 658 q 794 787 867 742 q 631 832 722 832 q 410 744 503 832 q 290 525 318 656 l 764 525 l 714 467 l 282 467 q 281 447 282 460 q 281 426 281 433 l 681 426 l 632 368 l 288 368 q 403 138 310 232 q 631 44 497 44 q 911 211 825 44 l 939 204 l 939 -15 z "},"™":{"ha":801,"x_min":33,"x_max":768,"o":"m 336 906 l 324 825 l 314 829 q 304 853 314 842 q 283 864 294 864 l 199 864 l 199 621 q 208 593 199 604 q 229 582 217 582 l 236 582 l 236 572 l 121 572 l 121 582 l 129 582 q 150 593 142 582 q 158 621 158 604 l 158 864 l 79 864 q 56 851 67 864 q 44 825 44 838 l 33 825 l 33 906 l 44 908 q 81 890 56 890 l 286 890 q 326 908 314 890 l 336 906 m 768 572 l 651 572 l 651 582 q 683 615 683 582 q 678 653 681 628 q 675 683 675 679 l 658 829 l 563 572 l 549 572 l 433 814 l 417 617 q 424 593 417 604 q 443 582 432 582 l 450 582 l 450 572 l 356 572 l 356 582 l 361 582 q 384 595 374 582 q 396 621 394 608 l 417 847 q 354 879 393 879 l 353 890 l 444 890 l 565 638 l 658 890 l 750 890 l 750 879 l 732 879 q 699 851 699 879 l 726 621 q 768 582 731 582 l 768 572 z "},"−":{"ha":693,"x_min":33,"x_max":660,"o":"m 660 425 l 33 425 l 33 501 l 660 501 l 660 425 z "}}}
